<svg xmlns="http://www.w3.org/2000/svg" width="80.649" height="80.649" viewBox="0 0 80.649 80.649"><g transform="translate(0)"><rect width="2.688" height="2.688" transform="translate(22.851 22.85)" fill="#c8ac78"/><rect width="2.688" height="2.688" transform="translate(28.227 22.85)" fill="#c8ac78"/><rect width="2.688" height="2.688" transform="translate(33.604 22.85)" fill="#c8ac78"/><path d="M-733.576-856.308a12.111,12.111,0,0,0-12.1,12.1,12.111,12.111,0,0,0,12.1,12.1,12.111,12.111,0,0,0,12.1-12.1A12.111,12.111,0,0,0-733.576-856.308Zm0,21.506a9.421,9.421,0,0,1-9.41-9.409,9.421,9.421,0,0,1,9.41-9.409,9.42,9.42,0,0,1,9.409,9.409A9.42,9.42,0,0,1-733.576-834.8Z" transform="translate(773.901 889.912)" fill="#c8ac78"/><path d="M-732.739-848.847a1.341,1.341,0,0,0-1.422-.161,1.343,1.343,0,0,0-.762,1.211v10.753a1.343,1.343,0,0,0,.762,1.211,1.334,1.334,0,0,0,.582.133,1.34,1.34,0,0,0,.84-.295l6.721-5.376a1.347,1.347,0,0,0,.5-1.05,1.346,1.346,0,0,0-.5-1.049Zm.5,9.006V-845l3.224,2.579Z" transform="translate(771.216 888.122)" fill="#c8ac78"/><path d="M-703.995-901.1h-5.377a1.343,1.343,0,0,0-1.344,1.344v1.344h-16.13a1.343,1.343,0,0,0-1.344,1.344v13.441h-13.442v-9.409h1.344a1.344,1.344,0,0,0,1.344-1.344v-5.377a1.343,1.343,0,0,0-1.344-1.344h-5.377a1.343,1.343,0,0,0-1.344,1.344v5.377a1.344,1.344,0,0,0,1.344,1.344h1.344v9.409h-13.441v-13.441a1.344,1.344,0,0,0-1.344-1.344h-16.13v-1.344a1.343,1.343,0,0,0-1.344-1.344h-5.376a1.343,1.343,0,0,0-1.344,1.344v5.377a1.344,1.344,0,0,0,1.344,1.344h5.376a1.344,1.344,0,0,0,1.344-1.344v-1.344h14.786v12.1h-4.032a1.344,1.344,0,0,0-1.344,1.344v43.013a1.344,1.344,0,0,0,1.344,1.344h4.032v12.1h-15.033a4.026,4.026,0,0,0-3.785-2.688,4.037,4.037,0,0,0-4.032,4.032,4.037,4.037,0,0,0,4.032,4.032,4.026,4.026,0,0,0,3.785-2.688h16.378a1.344,1.344,0,0,0,1.344-1.344v-13.441h13.441v9.409h-1.344a1.344,1.344,0,0,0-1.344,1.344v5.377a1.344,1.344,0,0,0,1.344,1.344h5.377a1.344,1.344,0,0,0,1.344-1.344v-5.377a1.344,1.344,0,0,0-1.344-1.344h-1.344v-9.409h13.442v13.441a1.343,1.343,0,0,0,1.344,1.344h16.378a4.026,4.026,0,0,0,3.785,2.688,4.037,4.037,0,0,0,4.032-4.032,4.037,4.037,0,0,0-4.032-4.032,4.026,4.026,0,0,0-3.785,2.688H-725.5v-12.1h4.032a1.344,1.344,0,0,0,1.344-1.344v-43.013a1.344,1.344,0,0,0-1.344-1.344H-725.5v-12.1h14.786v1.344a1.344,1.344,0,0,0,1.344,1.344h5.377a1.343,1.343,0,0,0,1.344-1.344v-5.377A1.343,1.343,0,0,0-703.995-901.1Zm-40.325,2.688h2.688v2.688h-2.688Zm-33.6,2.688h-2.689v-2.688h2.689Zm-1.344,72.585a1.346,1.346,0,0,1-1.344-1.344,1.346,1.346,0,0,1,1.344-1.344,1.346,1.346,0,0,1,1.344,1.344A1.346,1.346,0,0,1-779.268-823.14Zm37.636,0h-2.688v-2.689h2.688Zm34.948-2.689a1.346,1.346,0,0,1,1.344,1.344,1.346,1.346,0,0,1-1.344,1.344,1.346,1.346,0,0,1-1.344-1.344A1.346,1.346,0,0,1-706.683-825.829Zm-56.454-14.786v-29.572h40.324v29.572Zm40.324-32.259h-40.324v-8.065h40.324Zm17.474-22.851h-2.689v-2.688h2.689Z" transform="translate(783.3 901.101)" fill="#c8ac78"/></g></svg>