<svg xmlns="http://www.w3.org/2000/svg" width="24.922" height="17.881" viewBox="0 0 24.922 17.881">
  <g id="book" transform="translate(0 0)">
    <g id="Grupo_9267" data-name="Grupo 9267" transform="translate(0 0)">
      <path id="Caminho_8306" data-name="Caminho 8306" d="M24.439,59.791H22.8v-.56a.483.483,0,0,0-.348-.483,13.607,13.607,0,0,0-3.483-.444,8.984,8.984,0,0,0-6.512,2.415A8.889,8.889,0,0,0,5.942,58.3a13.607,13.607,0,0,0-3.483.444.483.483,0,0,0-.348.483v.556H.483A.483.483,0,0,0,0,60.269V75.7a.482.482,0,0,0,.72.42,17.032,17.032,0,0,1,11.623-.966h.116a.484.484,0,0,0,.116,0,16.743,16.743,0,0,1,11.623.966.483.483,0,0,0,.725-.415V60.274A.483.483,0,0,0,24.439,59.791ZM.966,74.931V60.757H2.121V72.873a.483.483,0,0,0,.556.483A21.139,21.139,0,0,1,5.7,73.114a12.531,12.531,0,0,1,4.125.623A17.759,17.759,0,0,0,.966,74.931ZM5.7,72.153a21.257,21.257,0,0,0-2.628.169V59.612a13.324,13.324,0,0,1,2.865-.319,7.887,7.887,0,0,1,6.029,2.367l.014,12.033A11.292,11.292,0,0,0,5.7,72.153Zm7.246-10.492a7.959,7.959,0,0,1,6.029-2.367,13.381,13.381,0,0,1,2.865.319v12.71a21.248,21.248,0,0,0-2.613-.174,11.386,11.386,0,0,0-6.28,1.541Zm11.009,13.27a17.763,17.763,0,0,0-8.874-1.193,12.56,12.56,0,0,1,4.145-.623,21.135,21.135,0,0,1,3.039.237.483.483,0,0,0,.556-.483V60.757H23.97Z" transform="translate(0 -58.303)" fill="gray"/>
    </g>
  </g>
</svg>
