<svg xmlns="http://www.w3.org/2000/svg" width="57.737" height="87.925" viewBox="0 0 57.737 87.925"><path d="M-1579.907-890.556h18.142a1.051,1.051,0,1,0,0-2.1h-18.142a1.051,1.051,0,0,0,0,2.1Zm0,0" transform="translate(1589.158 899.244)" fill="#c8ac78"/><path d="M-1581-881.658h18.959a1.051,1.051,0,0,0,0-2.1H-1581a1.051,1.051,0,0,0,0,2.1Zm0,0" transform="translate(1589.43 897.021)" fill="#c8ac78"/><path d="M-1581-872.76h42.327a1.051,1.051,0,1,0,0-2.1H-1581a1.051,1.051,0,1,0,0,2.1Zm0,0" transform="translate(1589.43 894.798)" fill="#c8ac78"/><g transform="translate(0 0)"><path d="M-1538.669-863.863a1.051,1.051,0,1,0,0-2.1H-1581a1.051,1.051,0,1,0,0,2.1Zm0,0" transform="translate(1589.43 892.576)" fill="#c8ac78"/><path d="M-1542.319-832.382a2.3,2.3,0,0,0,1.866.956,2.309,2.309,0,0,0,.92-.191l3.99-1.712a2.3,2.3,0,0,0,1.243-1.294,2.3,2.3,0,0,0-.07-1.792l-1.388-2.934-.3-58.064a4.055,4.055,0,0,0-4.074-4.024h-44.474a4.054,4.054,0,0,0-4.074,4.024v55.533l-2.936,5.572a2.277,2.277,0,0,0,.914,3.068l3.788,2.117a2.309,2.309,0,0,0,1.125.295,2.308,2.308,0,0,0,.659-.1,2.285,2.285,0,0,0,1.385-1.131l.41-.773,1.367,1.128-2.4,3.3a3.65,3.65,0,0,0-.3,3.8,3.647,3.647,0,0,0,3.254,1.993,3.7,3.7,0,0,0,.637-.055l0,.02a3.632,3.632,0,0,0,1.482,2.386,3.652,3.652,0,0,0,2.124.679,3.712,3.712,0,0,0,.638-.055c0,.007,0,.014,0,.023a3.649,3.649,0,0,0,3.6,3.065,3.692,3.692,0,0,0,.637-.056.186.186,0,0,0,0,.021,3.648,3.648,0,0,0,3.605,3.063,3.671,3.671,0,0,0,2.974-1.506l.76-1.047,1.423,1.127a3.943,3.943,0,0,0,5.5-.416,3.841,3.841,0,0,0,.924-2.046,3.935,3.935,0,0,0,4.087-1.177,3.858,3.858,0,0,0,.923-2.046A3.935,3.935,0,0,0-1548-821.8a3.85,3.85,0,0,0,.9-1.909,3.951,3.951,0,0,0,4.4-1.085l.047-.054a3.792,3.792,0,0,0,.925-2.775,3.792,3.792,0,0,0-1.323-2.608l-.866-.741a8.284,8.284,0,0,0,1.6-1.41Zm6.055-2.99a.194.194,0,0,1-.109.111l-3.99,1.713a.21.21,0,0,1-.271-.1l-.5-1.06a1.051,1.051,0,0,0-.189-.4l-9.086-19.1a.18.18,0,0,1-.006-.147.194.194,0,0,1,.115-.112l4.1-1.6a.209.209,0,0,1,.266.1l9.669,20.439a.183.183,0,0,1,.007.145Zm-50.318-62.04a1.949,1.949,0,0,1,1.971-1.922h44.474a1.951,1.951,0,0,1,1.972,1.927l.28,53.565-6.156-13.014a2.318,2.318,0,0,0-2.93-1.158l-4.1,1.6a2.293,2.293,0,0,0-1.3,1.289,2.3,2.3,0,0,0,.059,1.831l.428.9-.13.055a8.071,8.071,0,0,1-4.275-.175l-4.1-1.141a6.5,6.5,0,0,0-3.7.059l-3.953,1.239a6.494,6.494,0,0,0-2.164,1.167,8.439,8.439,0,0,0-3.239-.307l.287-.542a2.294,2.294,0,0,0-.845-3.035l-3.766-2.271a2.316,2.316,0,0,0-1.812-.249,2.32,2.32,0,0,0-1.427,1.146l-5.575,10.581Zm.977,64.373a.2.2,0,0,1-.123.1.208.208,0,0,1-.165-.018l-3.789-2.115a.19.19,0,0,1-.079-.254l10.615-20.14a.2.2,0,0,1,.125-.1.232.232,0,0,1,.06-.008.2.2,0,0,1,.108.032l3.765,2.27a.188.188,0,0,1,.073.251Zm3.287,8.048a1.552,1.552,0,0,1-.629-1.013,1.545,1.545,0,0,1,.277-1.161l3.936-5.415a1.568,1.568,0,0,1,2.174-.353,1.552,1.552,0,0,1,.629,1.013,1.549,1.549,0,0,1-.276,1.16l-1.068,1.467-2.854,3.925-.016.023a1.568,1.568,0,0,1-2.173.353Zm4.242,3.03a1.544,1.544,0,0,1-.628-1.01,1.548,1.548,0,0,1,.275-1.159l2.855-3.926a1.569,1.569,0,0,1,2.172-.353,1.555,1.555,0,0,1,.629,1.014,1.556,1.556,0,0,1-.276,1.161l-.9,1.237-1.934,2.659-.017.023a1.571,1.571,0,0,1-2.176.355Zm4.246,3.032a1.551,1.551,0,0,1-.629-1.013,1.558,1.558,0,0,1,.276-1.161l1.963-2.7a1.57,1.57,0,0,1,2.175-.353,1.55,1.55,0,0,1,.629,1.013,1.552,1.552,0,0,1-.276,1.159l-1.3,1.794-.644.886h0l-.016.022a1.57,1.57,0,0,1-2.174.353Zm6.419,2.676a1.571,1.571,0,0,1-2.176.353,1.549,1.549,0,0,1-.628-1.01,1.542,1.542,0,0,1,.275-1.158l1.077-1.483a1.57,1.57,0,0,1,2.175-.353,1.552,1.552,0,0,1,.629,1.013,1.546,1.546,0,0,1-.277,1.159Zm23.172-9.977-.047.055a1.844,1.844,0,0,1-2.581.2l-1.533-1.313-.007-.006-4.061-3.478a1.051,1.051,0,0,0-1.5.1,1.051,1.051,0,0,0,.134,1.5l.021.017.035.03c.338.289,2.2,1.883,4.012,3.436a1.773,1.773,0,0,1,.616,1.22,1.775,1.775,0,0,1-.435,1.295,1.835,1.835,0,0,1-2.569.185l-4.062-3.477a1.051,1.051,0,0,0-1.734.779v0a1.049,1.049,0,0,0,.368.815l2.8,2.4a1.782,1.782,0,0,1,.62,1.222,1.772,1.772,0,0,1-.434,1.3,1.836,1.836,0,0,1-2.57.185l-1.26-1.078h0l-1.542-1.319a1.051,1.051,0,0,0-1.365,1.6l1.34,1.146.2.173a1.777,1.777,0,0,1,.622,1.221,1.78,1.78,0,0,1-.434,1.3,1.836,1.836,0,0,1-2.571.184l-.031-.026-1.79-1.416a3.642,3.642,0,0,0-.71-2.9,3.637,3.637,0,0,0-2.64-1.392,3.635,3.635,0,0,0-.73-2.875,3.64,3.64,0,0,0-2.627-1.377,3.638,3.638,0,0,0-.686-2.819,3.644,3.644,0,0,0-2.531-1.422,3.66,3.66,0,0,0-2-4.206,3.663,3.663,0,0,0-4.51,1.167l-.3.413-1.6-1.322,7.646-14.429a7.734,7.734,0,0,1,2.956-.232,6.617,6.617,0,0,0-.33.666l-1.209,2.916c-.311.749-.6,1.518-.851,2.287l-1.2,3.647a1.051,1.051,0,0,0,.572,1.291l.26.115a6.294,6.294,0,0,0,6.035-.461,6.1,6.1,0,0,0,2.734-4.509c.007-.06.011-.122.016-.182.058-.271.425-1.794,1.436-1.912l1.689.472a3.872,3.872,0,0,1,1.664.959l10.783,10.567c.017.017.034.033.053.048l5.663,4.848a1.691,1.691,0,0,1,.594,1.165,1.691,1.691,0,0,1-.414,1.239Zm-4.452-8.825-10.759-10.542a5.985,5.985,0,0,0-2.568-1.482l-1.853-.518a1.038,1.038,0,0,0-.287-.039,3.415,3.415,0,0,0-3.011,1.967,6.155,6.155,0,0,0-.619,1.738q-.008.051-.011.1c0,.065-.01.129-.016.194a4.007,4.007,0,0,1-1.8,2.955,4.21,4.21,0,0,1-3.4.515l.889-2.692c.239-.721.506-1.44.8-2.141l1.2-2.907a4.349,4.349,0,0,1,2.711-2.447l3.954-1.239a4.415,4.415,0,0,1,2.509-.04l4.1,1.141a10.08,10.08,0,0,0,5.374.188,1.009,1.009,0,0,0,.191-.061l.31-.13,7.618,16.009a6.234,6.234,0,0,1-2.232,2.077Zm0,0" transform="translate(1591.888 901.437)" fill="#c8ac78"/></g><path d="M-1577.207-849.116a4.636,4.636,0,0,0,1.974.416,5.3,5.3,0,0,0,2.776-.773,5.645,5.645,0,0,0,1.521-1.506c.07-.092.152-.2.226-.292a4.821,4.821,0,0,0,.935.65,6.227,6.227,0,0,0,2.812.716,6.4,6.4,0,0,0,3.356-.883,1.05,1.05,0,0,0,.387-1.442,1.051,1.051,0,0,0-1.445-.374,4.288,4.288,0,0,1-2.252.6,4.128,4.128,0,0,1-1.864-.467,2.811,2.811,0,0,1-.617-.444,1.855,1.855,0,0,0-1.251-.569,2.39,2.39,0,0,0-1.967,1.246,3.734,3.734,0,0,1-.961.99,3.128,3.128,0,0,1-2.73.235,2.023,2.023,0,0,1-.66-.519,4.93,4.93,0,0,0,2.26-.962,5.3,5.3,0,0,0,1.5-1.888,2.666,2.666,0,0,0-.016-2.62,2.825,2.825,0,0,0-1.972-1.159,4.387,4.387,0,0,0-3.3.757,4.228,4.228,0,0,0-1.407,3.422l-.02-.009a1.052,1.052,0,0,0-1.38.552,1.051,1.051,0,0,0,.552,1.38,7.6,7.6,0,0,0,1.312.428,4.666,4.666,0,0,0,2.236,2.517Zm.011-6.642a2.155,2.155,0,0,1,1.264-.363,2.446,2.446,0,0,1,.391.031.911.911,0,0,1,.55.226c.111.172-.229,1.1-1.012,1.714a3.021,3.021,0,0,1-1.776.593,2.569,2.569,0,0,1,.583-2.2Zm0,0" transform="translate(1589.266 890.642)" fill="#c8ac78"/><path d="M-1529.828-852.311H-1545.6a1.051,1.051,0,1,0,0,2.1h15.773a1.051,1.051,0,1,0,0-2.1Zm0,0" transform="translate(1580.589 889.166)" fill="#c8ac78"/></svg>