<svg id="Grupo_9338" data-name="Grupo 9338" xmlns="http://www.w3.org/2000/svg" width="70.366" height="70.368" viewBox="0 0 70.366 70.368">
  <path id="Caminho_8329" data-name="Caminho 8329" d="M-1427.929-866.222a1.375,1.375,0,0,0-1.375,1.375,1.375,1.375,0,0,0,1.375,1.374,1.374,1.374,0,0,0,1.375-1.374,1.374,1.374,0,0,0-1.375-1.375Zm0,0" transform="translate(1475.598 887.545)" fill="#c8ac78"/>
  <g id="Grupo_9341" data-name="Grupo 9341" transform="translate(0 0)">
    <path id="Caminho_8330" data-name="Caminho 8330" d="M-1461.5-832.651a1.374,1.374,0,0,0-1.375,1.375,1.373,1.373,0,0,0,1.375,1.375,1.374,1.374,0,0,0,1.375-1.375,1.375,1.375,0,0,0-1.375-1.375Zm0,0" transform="translate(1484.198 878.946)" fill="#c8ac78"/>
    <path id="Caminho_8331" data-name="Caminho 8331" d="M-1422.882-886.433a1.372,1.372,0,0,0-1.287.37l-5.7,5.743h-2.732l-3.007-3.116v-2.77l5.616-5.7a1.375,1.375,0,0,0,.358-1.283,1.376,1.376,0,0,0-.9-.984,13.72,13.72,0,0,0-4.389-.716,13.592,13.592,0,0,0-11.158,5.727,13.588,13.588,0,0,0-2.121,11.578l-10.123,10.124-16.866-16.9v-3.318a1.375,1.375,0,0,0-.668-1.179l-9.718-5.832a1.373,1.373,0,0,0-1.679.207l-3.887,3.887a1.376,1.376,0,0,0-.206,1.68l5.83,9.718a1.375,1.375,0,0,0,1.177.667h3.317l16.868,16.905-10.085,10.085a13.59,13.59,0,0,0-11.582,2.124,13.585,13.585,0,0,0-5.723,11.155,13.708,13.708,0,0,0,.717,4.388,1.374,1.374,0,0,0,.991.9,1.374,1.374,0,0,0,1.288-.37l5.7-5.742h2.747l3.129,3.129v2.746l-5.742,5.7a1.373,1.373,0,0,0-.37,1.287,1.372,1.372,0,0,0,.9.991,13.7,13.7,0,0,0,4.389.717,13.587,13.587,0,0,0,11.155-5.724,13.589,13.589,0,0,0,2.124-11.581l8.1-8.1,1.856,2.016-.852.851a1.374,1.374,0,0,0,0,1.944,1.375,1.375,0,0,0,1.944,0l.771-.771,17.408,18.909.04.041a8.243,8.243,0,0,0,11.663,0,8.259,8.259,0,0,0,0-11.662l-.043-.041-18.939-17.375.762-.762a1.374,1.374,0,0,0,0-1.944,1.375,1.375,0,0,0-1.944,0l-.846.846-2.02-1.853,8.139-8.139a13.759,13.759,0,0,0,3.561.466,13.758,13.758,0,0,0,13.743-13.742,13.7,13.7,0,0,0-.717-4.389,1.372,1.372,0,0,0-.991-.9Zm-56.593,5.554a1.364,1.364,0,0,0-.973-.39h-3.108l-4.879-8.144,2.37-2.37,8.13,4.88v3.109a1.374,1.374,0,0,0,.4.971l17.27,17.309-1.944,1.943Zm34.958,26.809,19,17.433a5.507,5.507,0,0,1-.02,7.757,5.5,5.5,0,0,1-7.756.019l-17.465-18.972Zm-2.026-1.86-6.075,6.073-1.856-2.015,5.911-5.911Zm11.625-14.221a11,11,0,0,1-3.513-.572,1.375,1.375,0,0,0-1.41.33l-27.2,27.2a1.375,1.375,0,0,0-.331,1.412,10.884,10.884,0,0,1-1.5,9.929,10.872,10.872,0,0,1-8.922,4.578,11.458,11.458,0,0,1-1.2-.064l4.365-4.331a1.372,1.372,0,0,0,.406-.976v-3.887a1.372,1.372,0,0,0-.4-.972l-3.935-3.935a1.374,1.374,0,0,0-.971-.4h-3.887a1.377,1.377,0,0,0-.977.406l-4.331,4.366a11.06,11.06,0,0,1-.064-1.2,10.867,10.867,0,0,1,4.577-8.922,10.885,10.885,0,0,1,9.93-1.5,1.376,1.376,0,0,0,1.411-.331l27.2-27.2a1.371,1.371,0,0,0,.331-1.41,10.878,10.878,0,0,1,1.5-9.926,10.87,10.87,0,0,1,8.925-4.582,11.158,11.158,0,0,1,1.234.068l-4.275,4.338a1.378,1.378,0,0,0-.394.965v3.888a1.371,1.371,0,0,0,.385.954l3.8,3.934a1.375,1.375,0,0,0,.989.42h3.888a1.374,1.374,0,0,0,.975-.407l4.331-4.364a11.049,11.049,0,0,1,.064,1.2,11.007,11.007,0,0,1-10.994,10.994Zm0,0" transform="translate(1491.541 894.888)" fill="#c8ac78"/>
  </g>
  <path id="Caminho_8332" data-name="Caminho 8332" d="M-1440.049-860.594l-17.2,17.2a1.375,1.375,0,0,0,0,1.944,1.376,1.376,0,0,0,1.944,0l17.2-17.2a1.374,1.374,0,0,0,0-1.944,1.375,1.375,0,0,0-1.945,0Zm0,0" transform="translate(1482.859 886.207)" fill="#c8ac78"/>
  <path id="Caminho_8333" data-name="Caminho 8333" d="M-1415.044-816.434a1.376,1.376,0,0,0,1.945,0,1.375,1.375,0,0,0,0-1.944l-12.388-12.349a1.375,1.375,0,0,0-1.944,0,1.374,1.374,0,0,0,0,1.944Zm0,0" transform="translate(1475.222 878.556)" fill="#c8ac78"/>
</svg>
