<svg xmlns="http://www.w3.org/2000/svg" width="107" height="600" viewBox="0 0 107 600">
  <g id="Grupo_9613" data-name="Grupo 9613" transform="translate(-60 -1249.5)">
    <line id="Linha_101" data-name="Linha 101" y2="600" transform="translate(113.5 1249.5)" fill="none" stroke="#707070" stroke-width="1"/>
    <rect id="Retângulo_593" data-name="Retângulo 593" width="107" height="199" transform="translate(60 1450)" fill="#212438"/>
    <g id="telescope" transform="translate(83 1516)">
      <path id="Caminho_127" data-name="Caminho 127" d="M60.4,13.663,55.494.654A.937.937,0,0,0,54.233.08L37.977,7.474a1.1,1.1,0,0,0-.522,1.384l.128.339L11.058,21.261a1.017,1.017,0,0,0-.522.573,1.155,1.155,0,0,0,0,.811l.128.339L.6,27.563a1.1,1.1,0,0,0-.522,1.384l2.918,7.736a1.017,1.017,0,0,0,.522.573.885.885,0,0,0,.739,0l10.067-4.578.128.339a.968.968,0,0,0,.892.654.887.887,0,0,0,.369-.081L39.56,22.744a1.1,1.1,0,0,0,.522-1.384.936.936,0,0,0-1.261-.573L15.862,31.228l-3.175-8.415L38.322,11.155l4.041,10.712a1.017,1.017,0,0,0,.522.573.886.886,0,0,0,.739,0l3.566-1.622,12.69-5.771a1.017,1.017,0,0,0,.522-.573,1.155,1.155,0,0,0,0-.811ZM13.582,30.721,4.407,34.893l-2.18-5.778L11.4,24.942ZM43.777,20.077,39.736,9.365l-.128-.339,1.783-.811L45.56,19.266Zm3.566-1.622L43.174,7.4l10.907-4.96L58.25,13.5Z" transform="translate(-0.001 0.001)" fill="#fccc78"/>
      <path id="Caminho_128" data-name="Caminho 128" d="M165.521,213.325h.017a1.064,1.064,0,0,0,0-2.119h-.553l-.877-3.463a.983.983,0,0,0-.93-.776h-2.8v-7.743l3.167-1.441a1.1,1.1,0,0,0,.522-1.384.937.937,0,0,0-1.261-.573l-3.764,1.712-.009,0-3.753,1.707a1.1,1.1,0,0,0-.522,1.384.968.968,0,0,0,.892.654.888.888,0,0,0,.369-.081l2.429-1.1v6.865h-2.8a.984.984,0,0,0-.93.776l-.877,3.462h-.553a1.064,1.064,0,0,0,0,2.119h.017l-5.02,19.822a1.076,1.076,0,0,0,.671,1.3.958.958,0,0,0,1.188-.737l5.164-20.39h3.138v20.106a.969.969,0,1,0,1.93,0V213.325h3.138l5.164,20.39a.984.984,0,0,0,.929.776.884.884,0,0,0,.259-.039,1.076,1.076,0,0,0,.671-1.3Zm-9.673-2.119.537-2.119h6.06l.537,2.119Z" transform="translate(-129.177 -168.091)" fill="#fff"/>
    </g>
  </g>
</svg>
