<svg id="Grupo_9336" data-name="Grupo 9336" xmlns="http://www.w3.org/2000/svg" width="77.95" height="79.294" viewBox="0 0 77.95 79.294">
  <rect id="Retângulo_542" data-name="Retângulo 542" width="2.688" height="2.688" transform="translate(51.071 72.574)" fill="#c8ac78"/>
  <path id="Caminho_8317" data-name="Caminho 8317" d="M-1688.851-853.132a6.719,6.719,0,0,1-.239-8.672,6.72,6.72,0,0,1,8.511-1.681,6.719,6.719,0,0,1,3.074,8.112l2.534.9a9.407,9.407,0,0,0-4.3-11.36,9.4,9.4,0,0,0-11.917,2.353,9.406,9.406,0,0,0,.337,12.142Zm0,0" transform="translate(1722.817 891.211)" fill="#c8ac78"/>
  <path id="Caminho_8318" data-name="Caminho 8318" d="M-1659.54-899.163h-64.51a1.345,1.345,0,0,0-1.344,1.344V-823.9a1.345,1.345,0,0,0,1.344,1.344h28.223v2.688h2.688v-9.408h18.816v4.032h-.05v2.688h.05v2.688h2.688v-2.688h12.1a1.345,1.345,0,0,0,1.344-1.344v-73.918a1.345,1.345,0,0,0-1.344-1.344Zm-33.3,60.85-3.675-2.448a4.483,4.483,0,0,1-1.987-4.009,4.485,4.485,0,0,1,2.47-3.731l.209-.1v3.2h2.688v-17.472a1.344,1.344,0,0,1,1.344-1.343,1.344,1.344,0,0,1,1.344,1.343v10.752h2.688V-857.5a1.344,1.344,0,0,1,1.344-1.343,1.344,1.344,0,0,1,1.344,1.343v6.72h2.688v-4.032a1.344,1.344,0,0,1,1.344-1.344,1.345,1.345,0,0,1,1.344,1.344v5.376h2.687v-4.032a1.345,1.345,0,0,1,1.344-1.344,1.344,1.344,0,0,1,1.344,1.344v6.085a24.239,24.239,0,0,1-2.553,10.786,1.356,1.356,0,0,0-.135.6v4.032h-13.439v-1.881a5.37,5.37,0,0,0-2.393-4.467Zm31.96,13.068h-10.752v-5.376a1.343,1.343,0,0,0-1.343-1.344h-1.344v-3.72a26.949,26.949,0,0,0,2.688-11.693v-6.091a4.032,4.032,0,0,0-4.032-4.032,3.994,3.994,0,0,0-1.977.538,4,4,0,0,0-4.9-1.587,3.963,3.963,0,0,0-2-2.529,3.963,3.963,0,0,0-3.219-.206v-1.592a4.032,4.032,0,0,0-4.032-4.032,4.032,4.032,0,0,0-4.032,4.032v11.265l-1.413.707a7.169,7.169,0,0,0-3.95,5.968,7.172,7.172,0,0,0,3.18,6.412l3.673,2.448a2.688,2.688,0,0,1,1.2,2.237v1.875h-1.344a1.343,1.343,0,0,0-1.343,1.344v5.376h-26.879v-71.23h61.822Zm0,0" transform="translate(1730.77 899.163)" fill="#c8ac78"/>
  <path id="Caminho_8319" data-name="Caminho 8319" d="M-1710.47-876.175l3.081-3.082,3.082,3.082,1.9-1.9-3.082-3.082,3.082-3.081-1.9-1.9-3.082,3.081-3.081-3.081-1.9,1.9,3.081,3.081-3.081,3.082Zm0,0" transform="translate(1727.548 895.941)" fill="#c8ac78"/>
  <path id="Caminho_8320" data-name="Caminho 8320" d="M-1658.683-864.71l-1.9,1.9,3.082,3.081-3.082,3.082,1.9,1.9,3.081-3.082,3.082,3.082,1.9-1.9-3.082-3.082,3.082-3.081-1.9-1.9-3.082,3.081Zm0,0" transform="translate(1714.736 890.639)" fill="#c8ac78"/>
  <path id="Caminho_8321" data-name="Caminho 8321" d="M-1704.307-821.852l-3.082,3.081-3.081-3.081-1.9,1.9,3.081,3.081-3.081,3.082,1.9,1.9,3.081-3.081,3.082,3.081,1.9-1.9-3.082-3.082,3.082-3.081Zm0,0" transform="translate(1727.548 880.037)" fill="#c8ac78"/>
  <rect id="Retângulo_543" data-name="Retângulo 543" width="2.688" height="2.688" transform="translate(24.191 32.255)" fill="#c8ac78"/>
  <rect id="Retângulo_544" data-name="Retângulo 544" width="2.688" height="2.688" transform="translate(37.631 18.816)" fill="#c8ac78"/>
  <rect id="Retângulo_545" data-name="Retângulo 545" width="2.688" height="2.688" transform="translate(37.631 13.44)" fill="#c8ac78"/>
  <rect id="Retângulo_546" data-name="Retângulo 546" width="2.688" height="2.688" transform="translate(37.631 8.064)" fill="#c8ac78"/>
  <rect id="Retângulo_547" data-name="Retângulo 547" width="2.688" height="2.688" transform="translate(43.007 8.064)" fill="#c8ac78"/>
  <rect id="Retângulo_548" data-name="Retângulo 548" width="2.688" height="2.688" transform="translate(48.383 8.064)" fill="#c8ac78"/>
  <rect id="Retângulo_549" data-name="Retângulo 549" width="2.688" height="2.688" transform="translate(53.759 8.064)" fill="#c8ac78"/>
  <rect id="Retângulo_550" data-name="Retângulo 550" width="2.688" height="2.688" transform="translate(59.135 8.064)" fill="#c8ac78"/>
  <rect id="Retângulo_551" data-name="Retângulo 551" width="2.688" height="2.688" transform="translate(18.815 32.255)" fill="#c8ac78"/>
  <rect id="Retângulo_552" data-name="Retângulo 552" width="2.688" height="2.688" transform="translate(13.44 32.255)" fill="#c8ac78"/>
  <rect id="Retângulo_553" data-name="Retângulo 553" width="2.688" height="2.688" transform="translate(13.44 37.631)" fill="#c8ac78"/>
  <rect id="Retângulo_554" data-name="Retângulo 554" width="2.688" height="2.688" transform="translate(13.44 43.007)" fill="#c8ac78"/>
  <rect id="Retângulo_555" data-name="Retângulo 555" width="2.688" height="2.688" transform="translate(13.44 48.383)" fill="#c8ac78"/>
  <g id="Grupo_9337" data-name="Grupo 9337" transform="translate(0 9.408)">
    <rect id="Retângulo_556" data-name="Retângulo 556" width="2.688" height="34.943" fill="#c8ac78"/>
    <rect id="Retângulo_557" data-name="Retângulo 557" width="2.688" height="25.535" transform="translate(75.262 28.223)" fill="#c8ac78"/>
    <rect id="Retângulo_558" data-name="Retângulo 558" width="2.688" height="2.688" transform="translate(75.262 56.447)" fill="#c8ac78"/>
  </g>
</svg>
