<svg xmlns="http://www.w3.org/2000/svg" width="40.412" height="47.868" viewBox="0 0 40.412 47.868">
  <g id="Grupo_9046" data-name="Grupo 9046" transform="translate(0.006 0.009)">
    <g id="Grupo_9045" data-name="Grupo 9045">
      <path id="Caminho_111" data-name="Caminho 111" d="M117.793,93.2a12.3,12.3,0,0,0-8.25,21.561c1.973,1.948,1.793,6.11,1.749,6.154a.728.728,0,0,0,.224.576.833.833,0,0,0,.538.221h11.433a.747.747,0,0,0,.538-.221.836.836,0,0,0,.224-.576c0-.044-.224-4.206,1.749-6.154l.134-.133A12.258,12.258,0,0,0,117.793,93.2Zm7.174,20.41c-.045.044-.135.133-.135.177-1.749,1.859-2.062,4.914-2.107,6.375h-9.908c-.045-1.461-.359-4.649-2.242-6.552a10.734,10.734,0,0,1-3.766-8.146,10.94,10.94,0,1,1,21.881,0,10.691,10.691,0,0,1-3.722,8.146Z" transform="translate(-97.554 -82.884)" fill="#1a213b"/>
      <path id="Caminho_112" data-name="Caminho 112" d="M210.091,121.6a.753.753,0,1,0,0,1.5,8.11,8.11,0,0,1,8.16,8.058.762.762,0,1,0,1.524,0,9.584,9.584,0,0,0-9.684-9.563Z" transform="translate(-189.897 -108.141)" fill="#fccc78"/>
      <path id="Caminho_113" data-name="Caminho 113" d="M166.765,358.4h-9.953a1.86,1.86,0,1,0,0,3.719h9.908a1.922,1.922,0,0,0,1.928-1.859A1.883,1.883,0,0,0,166.765,358.4Zm0,2.169h-9.953a.352.352,0,0,1-.359-.354.328.328,0,0,1,.359-.354h9.908a.352.352,0,0,1,.359.354.317.317,0,0,1-.314.354Z" transform="translate(-141.595 -318.731)" fill="#1a213b"/>
      <path id="Caminho_114" data-name="Caminho 114" d="M177.006,398.8h-6.994a1.86,1.86,0,1,0,0,3.719h6.994a1.883,1.883,0,0,0,1.883-1.859,1.854,1.854,0,0,0-1.883-1.86Zm0,2.169h-6.994a.352.352,0,0,1-.359-.354.328.328,0,0,1,.359-.354h6.994a.354.354,0,0,1,0,.708Z" transform="translate(-153.315 -354.66)" fill="#1a213b"/>
      <path id="Caminho_115" data-name="Caminho 115" d="M210.091,6.641a.751.751,0,0,0,.762-.753V.753a.762.762,0,1,0-1.524,0V5.888A.781.781,0,0,0,210.091,6.641Z" transform="translate(-189.897)" fill="#fccc78"/>
      <path id="Caminho_116" data-name="Caminho 116" d="M297.191,33.256a.729.729,0,0,0-1.031.177l-2.869,4.25a.738.738,0,1,0,1.211.841l2.869-4.25a.681.681,0,0,0-.18-1.018Z" transform="translate(-264.308 -29.448)" fill="#fccc78"/>
      <path id="Caminho_117" data-name="Caminho 117" d="M106.613,36.742a.729.729,0,0,0,.4-.133.77.77,0,0,0,.224-1.063l-2.78-4.294a.792.792,0,0,0-1.076-.221.77.77,0,0,0-.224,1.063l2.78,4.294A.746.746,0,0,0,106.613,36.742Z" transform="translate(-95.521 -27.488)" fill="#fccc78"/>
      <path id="Caminho_118" data-name="Caminho 118" d="M41.633,105.808,37.1,103.372a.8.8,0,0,0-1.031.31.7.7,0,0,0,.314,1.018l4.528,2.435a1.066,1.066,0,0,0,.359.089.741.741,0,0,0,.673-.4.774.774,0,0,0-.31-1.016Z" transform="translate(-35.966 -91.862)" fill="#fccc78"/>
      <path id="Caminho_119" data-name="Caminho 119" d="M348.221,103.682a.8.8,0,0,0-1.031-.31l-4.573,2.435a.774.774,0,0,0-.314,1.018.741.741,0,0,0,.673.4.853.853,0,0,0,.359-.089l4.573-2.435A.774.774,0,0,0,348.221,103.682Z" transform="translate(-307.896 -91.862)" fill="#fccc78"/>
    </g>
  </g>
</svg>
