<svg id="list" xmlns="http://www.w3.org/2000/svg" width="31.325" height="46.967" viewBox="0 0 31.325 46.967">
  <path id="Caminho_120" data-name="Caminho 120" d="M28.1,0H6.5V46.967H37.825V11.418Zm.391,2.672,7.055,8.287H28.494ZM7.833,45.4V1.566H27.161V12.525h9.331V45.4Z" transform="translate(-6.5)" fill="#1a213b"/>
  <path id="Caminho_121" data-name="Caminho 121" d="M36.83,21H26.166a.793.793,0,0,0,0,1.566H36.83a.793.793,0,0,0,0-1.566Z" transform="translate(-12.837 -4.561)" fill="#fccc78"/>
  <path id="Caminho_122" data-name="Caminho 122" d="M20.415,18.171l-2.867,2.694-.911-1.07a.6.6,0,0,0-.942,0,.881.881,0,0,0,0,1.107l1.333,1.566a.619.619,0,0,0,.471.229.6.6,0,0,0,.416-.171L21.247,19.4a.878.878,0,0,0,.1-1.1.6.6,0,0,0-.932-.124Z" transform="translate(-9.502 -3.91)" fill="#fccc78"/>
  <path id="Caminho_123" data-name="Caminho 123" d="M36.83,32H26.166a.793.793,0,0,0,0,1.566H36.83a.793.793,0,0,0,0-1.566Z" transform="translate(-12.837 -6.951)" fill="#fccc78"/>
  <path id="Caminho_124" data-name="Caminho 124" d="M20.415,29.171l-2.867,2.694-.911-1.07a.6.6,0,0,0-.942,0,.881.881,0,0,0,0,1.107l1.333,1.566a.619.619,0,0,0,.471.229.6.6,0,0,0,.416-.171L21.247,30.4a.878.878,0,0,0,.1-1.1.6.6,0,0,0-.932-.124Z" transform="translate(-9.502 -6.299)" fill="#fccc78"/>
  <path id="Caminho_125" data-name="Caminho 125" d="M36.83,43H26.166a.793.793,0,0,0,0,1.566H36.83a.793.793,0,0,0,0-1.566Z" transform="translate(-12.837 -9.34)" fill="#fccc78"/>
  <path id="Caminho_126" data-name="Caminho 126" d="M20.415,40.171l-2.867,2.694-.911-1.07a.6.6,0,0,0-.942,0,.881.881,0,0,0,0,1.107l1.333,1.566a.619.619,0,0,0,.471.229.6.6,0,0,0,.416-.171L21.247,41.4a.878.878,0,0,0,.1-1.1.6.6,0,0,0-.932-.124Z" transform="translate(-9.502 -8.688)" fill="#fccc78"/>
</svg>
