<svg xmlns="http://www.w3.org/2000/svg" width="117.448" height="53" viewBox="0 0 117.448 53">
  <g id="LOGO_DNA" data-name="LOGO DNA" transform="translate(-5.256 -7.45)">
    <g id="Grupo_2" data-name="Grupo 2" transform="translate(5.256 7.45)">
      <path id="Caminho_1" data-name="Caminho 1" d="M148.031,7.45h11.951l28.4,38.481h-7.967L155.849,13.6l-.027,32.325h0v.005h-7.789Z" transform="translate(-70.936 -7.45)" fill="#fff" fill-rule="evenodd"/>
      <path id="Caminho_2" data-name="Caminho 2" d="M12.8,40.022H19c5.75,0,9.75-.95,11.965-2.852q3.348-2.866,3.348-10.229,0-7.2-3.416-10.19t-11.613-3H12.8v26.27ZM5.4,46.17V7.6H20.377a51.444,51.444,0,0,1,8.491.51A15.309,15.309,0,0,1,33.729,9.8a14.856,14.856,0,0,1,6.016,6.622,24.429,24.429,0,0,1,2.02,10.5,22.216,22.216,0,0,1-2.5,11.012A15.329,15.329,0,0,1,31.9,44.57,16.227,16.227,0,0,1,27.169,45.8a80.2,80.2,0,0,1-9.1.366Z" transform="translate(-5.321 -7.521)" fill="#fff"/>
      <path id="Caminho_3" data-name="Caminho 3" d="M76.117,46.17V7.6H87.869l17.07,32.582L104.912,7.6h7.518V46.17H100.624L83.242,13.695,83.3,46.17Z" transform="translate(-37.854 -7.521)" fill="#fff"/>
      <g id="Grupo_1" data-name="Grupo 1" transform="translate(0 42.405)">
        <path id="Caminho_4" data-name="Caminho 4" d="M6.846,95.213H8.183a6.759,6.759,0,0,0,1.654-.149,2.437,2.437,0,0,0,.961-.5,3.007,3.007,0,0,0,.83-1.2,5.162,5.162,0,0,0,0-3.343,3.009,3.009,0,0,0-.83-1.2,2.48,2.48,0,0,0-.992-.5A7.907,7.907,0,0,0,8,88.162H6.846v7.051Zm-1.59,1.463V86.712H7.4a13.879,13.879,0,0,1,2.946.214,3.994,3.994,0,0,1,1.495.718,4.172,4.172,0,0,1,1.286,1.7,6.011,6.011,0,0,1,.438,2.361,5.941,5.941,0,0,1-.438,2.353,4.231,4.231,0,0,1-1.286,1.691,4.023,4.023,0,0,1-1.461.718,11.09,11.09,0,0,1-2.55.213H5.256Zm16.476,0V86.712h5.462v1.376H23.322v2.5h3.872v1.422H23.322v3.22h3.872v1.449Z" transform="translate(-5.256 -86.318)" fill="#fff"/>
        <path id="Caminho_5" data-name="Caminho 5" d="M72.492,96.577l-4.3-10.206h1.629L71.979,91.6c.126.3.232.584.315.843a6.645,6.645,0,0,1,.2.735c.059-.247.131-.5.218-.765s.191-.536.31-.813l2.153-5.233h1.622l-4.3,10.206Zm11.533-.383V86.371h5.385v1.356H85.592v2.462h3.817v1.4H85.592v3.175h3.817v1.429Zm13.436,0V85.982l6.127,6.005c.168.17.337.35.508.543s.351.41.54.653V86.371h1.45V96.577l-6.252-6.113c-.166-.165-.328-.339-.484-.522s-.306-.376-.445-.577v6.829Zm18.66-1.442h1.318a6.677,6.677,0,0,0,1.631-.147,2.4,2.4,0,0,0,.947-.5,2.96,2.96,0,0,0,.819-1.184,5.088,5.088,0,0,0,0-3.3,2.964,2.964,0,0,0-.819-1.184,2.439,2.439,0,0,0-.978-.5,7.776,7.776,0,0,0-1.784-.147H116.12v6.951Zm-1.568,1.442V86.371h2.114a13.7,13.7,0,0,1,2.9.211,3.937,3.937,0,0,1,1.473.708,4.114,4.114,0,0,1,1.269,1.672,5.929,5.929,0,0,1,.431,2.327,5.86,5.86,0,0,1-.431,2.32,4.176,4.176,0,0,1-1.269,1.667,3.948,3.948,0,0,1-1.44.708,10.947,10.947,0,0,1-2.515.21h-2.537Zm18.042-3.859h2.688l-.988-2.24c-.056-.144-.117-.309-.178-.495s-.124-.392-.184-.621c-.054.215-.108.417-.168.6s-.119.355-.18.513l-.99,2.24Zm4.337,3.859-1.1-2.53h-3.819l-1.12,2.53h-1.649l4.672-10.212,4.665,10.212Zm8.265-1.967,1.25-.589a1.764,1.764,0,0,0,.653,1,2.007,2.007,0,0,0,1.212.346,1.54,1.54,0,0,0,1.111-.4,1.4,1.4,0,0,0,.412-1.058q0-.866-1.41-1.544c-.133-.066-.232-.117-.3-.146A6.821,6.821,0,0,1,146,90.407a2.38,2.38,0,0,1-.531-1.567,2.539,2.539,0,0,1,.8-1.947,2.953,2.953,0,0,1,2.1-.744,3.5,3.5,0,0,1,1.786.419,2.2,2.2,0,0,1,.994,1.2l-1.225.644a2.034,2.034,0,0,0-.637-.676,1.627,1.627,0,0,0-1.8.119,1.151,1.151,0,0,0-.373.9q0,.887,1.635,1.649c.083.042.148.073.2.095a5.87,5.87,0,0,1,1.965,1.312,2.424,2.424,0,0,1,.533,1.6,2.915,2.915,0,0,1-.864,2.217,3.244,3.244,0,0,1-2.332.822,3.335,3.335,0,0,1-2.02-.577A2.7,2.7,0,0,1,145.2,94.227Z" transform="translate(-34.207 -85.982)" fill="#fff"/>
      </g>
    </g>
  </g>
</svg>
