<svg xmlns="http://www.w3.org/2000/svg" width="78.819" height="78.82" viewBox="0 0 78.819 78.82">
  <g id="Grupo_9340" data-name="Grupo 9340" transform="translate(0)">
    <g id="Grupo_9345" data-name="Grupo 9345" transform="translate(0 0)">
      <path id="Caminho_8337" data-name="Caminho 8337" d="M-1073.639-895.512v13.137h2.627v-13.137a2.627,2.627,0,0,1,2.627-2.627h52.546a2.627,2.627,0,0,1,2.627,2.627h2.627a5.255,5.255,0,0,0-5.254-5.254h-52.546a5.255,5.255,0,0,0-5.255,5.254Zm0,0" transform="translate(1081.521 900.766)" fill="#c8ac78"/>
      <path id="Caminho_8338" data-name="Caminho 8338" d="M-1078.981-807.47h60.428a5.255,5.255,0,0,0,5.255-5.254v-5.255h-2.627v5.255a2.627,2.627,0,0,1-2.627,2.627,2.627,2.627,0,0,1-2.627-2.627v-3.941a1.313,1.313,0,0,0-1.314-1.314h-51.233v-26.273h-2.627v26.273h-6.568a1.313,1.313,0,0,0-1.314,1.314v3.941a5.255,5.255,0,0,0,5.254,5.254Zm-2.627-7.882h57.8v2.627a5.215,5.215,0,0,0,.706,2.627h-55.88a2.627,2.627,0,0,1-2.627-2.627Zm0,0" transform="translate(1084.235 886.289)" fill="#c8ac78"/>
      <path id="Caminho_8339" data-name="Caminho 8339" d="M-1082.921-854.118h26.273a1.314,1.314,0,0,0,1.314-1.314V-871.2a1.313,1.313,0,0,0-1.314-1.314h-26.273a1.313,1.313,0,0,0-1.314,1.314v15.764a1.313,1.313,0,0,0,1.314,1.314Zm1.314-15.764h23.645v13.137h-23.645Zm0,0" transform="translate(1084.235 893.528)" fill="#c8ac78"/>
      <path id="Caminho_8340" data-name="Caminho 8340" d="M-1074.159-864.927l-2.627,2.627a1.314,1.314,0,0,0,0,1.857l2.627,2.627,1.858-1.857-1.7-1.7,1.7-1.7Zm0,0" transform="translate(1082.425 891.585)" fill="#c8ac78"/>
      <path id="Caminho_8341" data-name="Caminho 8341" d="M-1057.136-864.927l-1.857,1.857,1.7,1.7-1.7,1.7,1.857,1.857,2.627-2.627a1.314,1.314,0,0,0,0-1.857Zm0,0" transform="translate(1077.769 891.585)" fill="#c8ac78"/>
      <path id="Caminho_8342" data-name="Caminho 8342" d="M-1068.252-858.122l2.629-7.883,2.493.832-2.63,7.883Zm0,0" transform="translate(1080.141 891.862)" fill="#c8ac78"/>
      <path id="Caminho_8343" data-name="Caminho 8343" d="M-995.873-890.169h-44.664a1.313,1.313,0,0,0-1.314,1.314v26.272a1.314,1.314,0,0,0,1.314,1.314h44.664a1.314,1.314,0,0,0,1.314-1.314v-26.272a1.313,1.313,0,0,0-1.314-1.314Zm-1.314,26.272h-42.037v-3.2l11.8-7.078,11.5,7.438a1.313,1.313,0,0,0,1.314.063l9.511-4.926,7.915,4.522Zm0-6.2-7.225-4.131a1.314,1.314,0,0,0-1.256-.026l-9.467,4.9-11.547-7.468a1.313,1.313,0,0,0-1.39-.022l-11.151,6.687v-17.384h42.037Zm0,0" transform="translate(1073.378 898.051)" fill="#c8ac78"/>
      <path id="Caminho_8344" data-name="Caminho 8344" d="M-1001.931-873.91a4.6,4.6,0,0,0,4.6-4.6,4.6,4.6,0,0,0-4.6-4.6,4.6,4.6,0,0,0-4.6,4.6,4.6,4.6,0,0,0,4.6,4.6Zm0-6.568a1.97,1.97,0,0,1,1.97,1.97,1.97,1.97,0,0,1-1.97,1.97,1.97,1.97,0,0,1-1.97-1.97,1.97,1.97,0,0,1,1.97-1.97Zm0,0" transform="translate(1064.33 896.242)" fill="#c8ac78"/>
      <path id="Caminho_8345" data-name="Caminho 8345" d="M-1066.575-842.938v15.763a1.313,1.313,0,0,0,1.314,1.314h32.841a1.313,1.313,0,0,0,1.314-1.314v-15.763a1.313,1.313,0,0,0-1.314-1.314h-32.841a1.313,1.313,0,0,0-1.314,1.314Zm2.627,1.314h30.214v13.136h-30.214Zm0,0" transform="translate(1079.711 886.289)" fill="#c8ac78"/>
      <rect id="Retângulo_559" data-name="Retângulo 559" width="5.255" height="2.627" transform="translate(18.391 47.292)" fill="#c8ac78"/>
      <rect id="Retângulo_560" data-name="Retângulo 560" width="11.823" height="2.627" transform="translate(26.273 47.292)" fill="#c8ac78"/>
      <rect id="Retângulo_561" data-name="Retângulo 561" width="2.627" height="2.627" transform="translate(40.723 47.292)" fill="#c8ac78"/>
      <rect id="Retângulo_562" data-name="Retângulo 562" width="15.764" height="2.627" transform="translate(18.391 52.546)" fill="#c8ac78"/>
      <rect id="Retângulo_563" data-name="Retângulo 563" width="6.568" height="2.627" transform="translate(36.782 52.546)" fill="#c8ac78"/>
      <rect id="Retângulo_564" data-name="Retângulo 564" width="2.627" height="2.627" transform="translate(13.136 5.255)" fill="#c8ac78"/>
      <rect id="Retângulo_565" data-name="Retângulo 565" width="2.627" height="2.627" transform="translate(18.391 5.255)" fill="#c8ac78"/>
      <rect id="Retângulo_566" data-name="Retângulo 566" width="2.627" height="2.627" transform="translate(23.645 5.255)" fill="#c8ac78"/>
      <rect id="Retângulo_567" data-name="Retângulo 567" width="15.764" height="2.627" transform="translate(13.136 10.509)" fill="#c8ac78"/>
      <path id="Caminho_8346" data-name="Caminho 8346" d="M-989.087-837.188h-24.96a1.313,1.313,0,0,0-1.314,1.314v15.763a1.314,1.314,0,0,0,1.314,1.314h24.96a1.314,1.314,0,0,0,1.314-1.314v-15.763a1.313,1.313,0,0,0-1.314-1.314Zm-1.314,15.763h-22.332v-13.136H-990.4Zm0,0" transform="translate(1066.592 884.48)" fill="#c8ac78"/>
      <rect id="Retângulo_568" data-name="Retângulo 568" width="2.627" height="2.627" transform="translate(56.487 52.546)" fill="#c8ac78"/>
      <rect id="Retângulo_569" data-name="Retângulo 569" width="2.627" height="2.627" transform="translate(56.487 57.801)" fill="#c8ac78"/>
      <rect id="Retângulo_570" data-name="Retângulo 570" width="11.823" height="2.627" transform="translate(61.741 52.546)" fill="#c8ac78"/>
      <rect id="Retângulo_571" data-name="Retângulo 571" width="11.823" height="2.627" transform="translate(61.741 57.801)" fill="#c8ac78"/>
      <rect id="Retângulo_572" data-name="Retângulo 572" width="2.627" height="5.255" transform="translate(68.31 39.41)" fill="#c8ac78"/>
    </g>
  </g>
</svg>
