<svg xmlns="http://www.w3.org/2000/svg" width="70" height="92" viewBox="0 0 70 92">
  <g id="placeholder" transform="translate(-8.203)">
    <path id="Caminho_105" data-name="Caminho 105" d="M33.334,12c-7.044,0-12.777,5.277-12.777,11.761S26.29,35.522,33.334,35.522,46.11,30.245,46.11,23.761,40.377,12,33.334,12Zm0,20.162c-5.032,0-9.126-3.769-9.126-8.4s4.094-8.4,9.126-8.4,9.126,3.769,9.126,8.4S38.366,32.162,33.334,32.162Z" transform="translate(10.195 8.162)" fill="#fff"/>
    <path id="Caminho_106" data-name="Caminho 106" d="M67.956,9.437A36.354,36.354,0,0,0,43.206,0a36.35,36.35,0,0,0-24.75,9.437C6.221,20.7,4.7,41.884,15.163,54.721L43.206,92l28-37.227C81.711,41.884,80.191,20.7,67.956,9.437Zm.29,43.371L43.206,86.1,18.125,52.757C8.636,41.11,10,21.976,21.038,11.813A32.559,32.559,0,0,1,43.206,3.36a32.567,32.567,0,0,1,22.169,8.453C76.418,21.976,77.778,41.11,68.247,52.809Z" transform="translate(0 0)" fill="#fff"/>
  </g>
</svg>
