<svg xmlns="http://www.w3.org/2000/svg" width="81.642" height="81.642" viewBox="0 0 81.642 81.642">
  <path id="Caminho_8315" data-name="Caminho 8315" d="M-1288.692-844.111v-13.743h-28.914v-10.291a17.032,17.032,0,0,0,15.308-16.922,17.028,17.028,0,0,0-17.009-17.009,17.028,17.028,0,0,0-17.009,17.009,17.032,17.032,0,0,0,15.308,16.922v10.291h-28.915v13.743a11.914,11.914,0,0,0-10.205,11.77,11.92,11.92,0,0,0,11.906,11.906,11.92,11.92,0,0,0,11.906-11.906,11.914,11.914,0,0,0-10.205-11.77v-10.342h25.513v10.342a11.914,11.914,0,0,0-10.205,11.77,11.92,11.92,0,0,0,11.906,11.906,11.92,11.92,0,0,0,11.906-11.906,11.915,11.915,0,0,0-10.205-11.77v-10.342h25.513v10.342a11.914,11.914,0,0,0-10.205,11.77,11.92,11.92,0,0,0,11.906,11.906,11.92,11.92,0,0,0,11.906-11.906A11.914,11.914,0,0,0-1288.692-844.111Zm-51.026,11.77a8.514,8.514,0,0,1-8.5,8.5,8.514,8.514,0,0,1-8.5-8.5,8.515,8.515,0,0,1,8.5-8.5A8.514,8.514,0,0,1-1339.718-832.341Zm28.915,0a8.514,8.514,0,0,1-8.5,8.5,8.514,8.514,0,0,1-8.5-8.5,8.514,8.514,0,0,1,8.5-8.5A8.515,8.515,0,0,1-1310.8-832.341Zm-8.5-39.12a13.623,13.623,0,0,1-13.607-13.607,13.623,13.623,0,0,1,13.607-13.607,13.623,13.623,0,0,1,13.607,13.607A13.623,13.623,0,0,1-1319.308-871.461Zm28.914,47.624a8.514,8.514,0,0,1-8.5-8.5,8.514,8.514,0,0,1,8.5-8.5,8.514,8.514,0,0,1,8.5,8.5A8.514,8.514,0,0,1-1290.393-823.837Z" transform="translate(1360.129 902.077)" fill="#c8ac78"/>
</svg>
