<svg id="Grupo_4" data-name="Grupo 4" xmlns="http://www.w3.org/2000/svg" width="113.204" height="89.6" viewBox="0 0 113.204 89.6">
  <path id="Caminho_22" data-name="Caminho 22" d="M1059.37,1399.33a1.66,1.66,0,0,0,0-3.32h-14.113a1.659,1.659,0,0,0-1.659,1.66v31.59H1032.8v-4.82a5.079,5.079,0,0,0-5.073-5.073H997.31a5.078,5.078,0,0,0-5.072,5.073V1437.4a5.078,5.078,0,0,0,5.072,5.072h3.064a1.66,1.66,0,1,0,0-3.319H997.31a1.754,1.754,0,0,1-1.752-1.752v-12.959a1.753,1.753,0,0,1,1.752-1.752h30.421a1.753,1.753,0,0,1,1.752,1.752V1437.4a1.753,1.753,0,0,1-1.752,1.752h-19.685a1.66,1.66,0,1,0,0,3.319h19.685a5.078,5.078,0,0,0,5.073-5.072v-4.82H1043.6v31.589a1.659,1.659,0,0,0,1.659,1.66h14.113a1.66,1.66,0,0,0,0-3.321h-12.453v-29.929h12.453a1.659,1.659,0,1,0,0-3.319h-12.453v-29.93Zm0,0" transform="translate(-992.239 -1386.119)" fill="#B08961"/>
  <path id="Caminho_23" data-name="Caminho 23" d="M1019.8,1431.313a1.66,1.66,0,1,0,0-3.32h-13.278a1.66,1.66,0,1,0,0,3.32Zm0,0" transform="translate(-992.882 -1387.749)" fill="#B08961"/>
  <path id="Caminho_24" data-name="Caminho 24" d="M999.853,1436.473a1.66,1.66,0,0,0,1.66,1.661h22.794a1.66,1.66,0,0,0,0-3.32h-22.794a1.658,1.658,0,0,0-1.66,1.659Zm0,0" transform="translate(-992.627 -1388.097)" fill="#B08961"/>
  <path id="Caminho_25" data-name="Caminho 25" d="M1104.272,1385.588h-30.422a5.077,5.077,0,0,0-5.072,5.071v12.959a5.077,5.077,0,0,0,5.072,5.072h30.422a5.077,5.077,0,0,0,5.072-5.072v-12.959a5.077,5.077,0,0,0-5.072-5.071Zm1.752,18.03a1.754,1.754,0,0,1-1.752,1.753h-30.422a1.753,1.753,0,0,1-1.751-1.753v-12.959a1.754,1.754,0,0,1,1.751-1.752h30.422a1.754,1.754,0,0,1,1.752,1.752Zm0,0" transform="translate(-996.14 -1385.588)" fill="#B08961"/>
  <path id="Caminho_26" data-name="Caminho 26" d="M1104.272,1420.621H1085.31a1.66,1.66,0,0,0,0,3.321h18.962a1.753,1.753,0,0,1,1.752,1.752v12.959a1.754,1.754,0,0,1-1.752,1.752h-30.422a1.753,1.753,0,0,1-1.751-1.752v-12.959a1.752,1.752,0,0,1,1.751-1.752h3.814a1.66,1.66,0,0,0,0-3.321h-3.814a5.079,5.079,0,0,0-5.072,5.073v12.959a5.078,5.078,0,0,0,5.072,5.072h30.422a5.078,5.078,0,0,0,5.072-5.072v-12.959a5.078,5.078,0,0,0-5.072-5.073Zm0,0" transform="translate(-996.14 -1387.373)" fill="#B08961"/>
  <path id="Caminho_27" data-name="Caminho 27" d="M1104.272,1455.657h-30.422a5.077,5.077,0,0,0-5.072,5.071v12.96a5.078,5.078,0,0,0,5.072,5.072h30.422a5.078,5.078,0,0,0,5.072-5.072v-12.96a5.077,5.077,0,0,0-5.072-5.071Zm1.752,18.031a1.754,1.754,0,0,1-1.752,1.752h-30.422a1.754,1.754,0,0,1-1.751-1.752v-12.96a1.754,1.754,0,0,1,1.751-1.753h30.422a1.755,1.755,0,0,1,1.752,1.753Zm0,0" transform="translate(-996.14 -1389.159)" fill="#B08961"/>
  <path id="Caminho_28" data-name="Caminho 28" d="M1096.344,1430.954a1.66,1.66,0,0,0,0-3.32h-13.278a1.66,1.66,0,1,0,0,3.32Zm0,0" transform="translate(-996.783 -1387.731)" fill="#B08961"/>
  <path id="Caminho_29" data-name="Caminho 29" d="M1076.392,1436.114a1.661,1.661,0,0,0,1.66,1.661h22.794a1.66,1.66,0,0,0,0-3.32h-22.794a1.659,1.659,0,0,0-1.66,1.659Zm0,0" transform="translate(-996.528 -1388.078)" fill="#B08961"/>
  <path id="Caminho_30" data-name="Caminho 30" d="M1083.066,1395.919h13.278a1.659,1.659,0,1,0,0-3.319h-13.278a1.659,1.659,0,1,0,0,3.319Zm0,0" transform="translate(-996.783 -1385.945)" fill="#B08961"/>
  <path id="Caminho_31" data-name="Caminho 31" d="M1100.846,1399.419h-22.794a1.66,1.66,0,0,0,0,3.321h22.794a1.66,1.66,0,0,0,0-3.321Zm0,0" transform="translate(-996.528 -1386.293)" fill="#B08961"/>
  <path id="Caminho_32" data-name="Caminho 32" d="M1083.066,1465.989h13.278a1.66,1.66,0,0,0,0-3.32h-13.278a1.66,1.66,0,1,0,0,3.32Zm0,0" transform="translate(-996.783 -1389.516)" fill="#B08961"/>
  <path id="Caminho_33" data-name="Caminho 33" d="M1100.846,1469.489h-22.794a1.66,1.66,0,1,0,0,3.32h22.794a1.66,1.66,0,0,0,0-3.32Zm0,0" transform="translate(-996.528 -1389.864)" fill="#B08961"/>
</svg>
