<svg xmlns="http://www.w3.org/2000/svg" width="43.836" height="48.111" viewBox="0 0 43.836 48.111">
  <g id="telescope" transform="translate(0.005 -0.004)">
    <path id="Caminho_127" data-name="Caminho 127" d="M43.772,9.9,40.215.474A.679.679,0,0,0,39.3.058L27.521,5.416a.8.8,0,0,0-.378,1l.093.246L8.013,15.407a.737.737,0,0,0-.378.416.837.837,0,0,0,0,.588l.093.246-7.3,3.318a.8.8,0,0,0-.378,1l2.115,5.606A.737.737,0,0,0,2.548,27a.642.642,0,0,0,.535,0l7.3-3.318.093.246a.7.7,0,0,0,.646.474.643.643,0,0,0,.267-.059l17.284-7.861a.8.8,0,0,0,.378-1,.679.679,0,0,0-.914-.416L11.5,22.63l-2.3-6.1L27.771,8.084,30.7,15.847a.737.737,0,0,0,.378.416.642.642,0,0,0,.535,0L34.2,15.087,43.4,10.9a.737.737,0,0,0,.378-.416.837.837,0,0,0,0-.588ZM9.843,22.262,3.194,25.286,1.614,21.1l6.649-3.024Zm21.881-7.713L28.8,6.787l-.1-.246,1.292-.588,3.021,8.009Zm2.584-1.175L31.287,5.365l7.9-3.6,3.021,8.009Z" transform="translate(-0.001 0.001)" fill="#fccc78"/>
    <path id="Caminho_128" data-name="Caminho 128" d="M160.767,208.485h.012a.771.771,0,0,0,0-1.536h-.4l-.635-2.509a.713.713,0,0,0-.674-.562h-2.028v-5.611l2.3-1.044a.8.8,0,0,0,.378-1,.679.679,0,0,0-.914-.416l-2.728,1.241h-.006l-2.72,1.237a.8.8,0,0,0-.378,1,.7.7,0,0,0,.646.474.643.643,0,0,0,.267-.059l1.76-.8v4.975h-2.028a.713.713,0,0,0-.674.562l-.635,2.509h-.4a.771.771,0,0,0,0,1.536h.012l-3.638,14.365a.78.78,0,0,0,.486.945.694.694,0,0,0,.861-.534l3.742-14.776h2.274v14.57a.7.7,0,0,0,1.4,0v-14.57h2.274l3.742,14.776a.713.713,0,0,0,.673.562.639.639,0,0,0,.188-.028.78.78,0,0,0,.486-.945Zm-7.01-1.536.389-1.536h4.391l.389,1.536Z" transform="translate(-134.429 -175.705)" fill="#1a213b"/>
  </g>
</svg>
