<svg xmlns="http://www.w3.org/2000/svg" width="86.213" height="76.848" viewBox="0 0 86.213 76.848">
  <g id="Grupo_9335" data-name="Grupo 9335" transform="translate(0 0)">
    <g id="Grupo_9335-2" data-name="Grupo 9335" transform="translate(0 0)">
      <path id="Caminho_8315" data-name="Caminho 8315" d="M-1817.537-874.384c-1.624-.624-3.355-1.192-5.177-1.7.47-1.831.846-3.614,1.117-5.333,1.41-8.943-.148-15.217-4.389-17.665a8.3,8.3,0,0,0-4.21-1.073c-4.931,0-11.162,3.662-17.448,9.847-1.373-1.349-2.753-2.588-4.128-3.7-7.04-5.694-13.253-7.481-17.494-5.033-2.725,1.573-4.382,4.787-4.792,9.291a1.375,1.375,0,0,0,1.246,1.494,1.373,1.373,0,0,0,1.494-1.245c.227-2.493,1.006-5.76,3.428-7.157,3.138-1.813,8.382-.067,14.387,4.788,1.31,1.06,2.625,2.241,3.936,3.528a89.064,89.064,0,0,0-7.779,9.6,88.262,88.262,0,0,0-12.527,2.008,49.949,49.949,0,0,1-1.375-7.49,1.373,1.373,0,0,0-1.5-1.234,1.376,1.376,0,0,0-1.235,1.5,52.52,52.52,0,0,0,1.453,7.912c-1.76.5-3.436,1.048-5.01,1.654-8.452,3.251-13.1,7.737-13.1,12.633s4.653,9.383,13.1,12.633c1.624.624,3.356,1.19,5.177,1.7-.47,1.832-.846,3.615-1.117,5.333-1.41,8.944.148,15.217,4.389,17.666a8.306,8.306,0,0,0,4.21,1.072c4.874,0,11.019-3.579,17.231-9.636,1.331,1.3,2.667,2.5,4,3.574,4.981,4.029,9.549,6.1,13.3,6.1a8.27,8.27,0,0,0,4.2-1.07c4.241-2.449,5.8-8.721,4.389-17.666-.27-1.717-.646-3.5-1.116-5.332a52.892,52.892,0,0,0,7.744-2.744,1.376,1.376,0,0,0,.685-1.821,1.375,1.375,0,0,0-1.821-.685,50.35,50.35,0,0,1-7.345,2.6,88.5,88.5,0,0,0-4.4-11.521,88.887,88.887,0,0,0,4.575-11.911c10.211,2.859,16.262,7.374,16.262,11.7,0,2.8-2.439,5.1-4.485,6.547a1.375,1.375,0,0,0-.331,1.917,1.373,1.373,0,0,0,1.916.331c3.7-2.607,5.651-5.649,5.651-8.8,0-4.9-4.653-9.383-13.1-12.633ZM-1830.2-897.4a5.6,5.6,0,0,1,2.835.7c3.139,1.813,4.249,7.227,3.046,14.854-.258,1.634-.614,3.332-1.061,5.075a89.142,89.142,0,0,0-12.572-1.987,88.793,88.793,0,0,0-7.772-9.584q.731-.721,1.461-1.395c5.366-4.944,10.36-7.667,14.064-7.667Zm-17.444,11.033a83.838,83.838,0,0,1,6.113,7.357q-2.965-.162-6.012-.163c-2.1,0-4.171.058-6.21.173a85.166,85.166,0,0,1,6.11-7.367Zm-.009,49.465a83.182,83.182,0,0,1-6.326-7.606c2.112.123,4.261.187,6.436.187,2.1,0,4.171-.061,6.214-.178a84.893,84.893,0,0,1-6.323,7.6Zm.109-10.17c-2.955,0-5.792-.115-8.5-.328-1.518-2.214-2.986-4.545-4.385-6.967-1.377-2.384-2.642-4.788-3.79-7.182,1.191-2.505,2.514-5.028,3.962-7.534,1.4-2.427,2.89-4.781,4.435-7.028q3.955-.3,8.274-.309,4.2,0,8.071.295c1.547,2.251,3.043,4.62,4.467,7.084,1.439,2.495,2.757,5,3.943,7.5-1.141,2.374-2.4,4.761-3.771,7.135-1.4,2.422-2.883,4.772-4.427,7.014-2.7.212-5.472.323-8.283.323Zm-12.035-.671a82.07,82.07,0,0,1-9.393-1.616,83.2,83.2,0,0,1,3.289-8.949q1.347,2.664,2.876,5.316,1.56,2.7,3.228,5.249Zm.218-28.034q-1.681,2.564-3.274,5.317c-1.088,1.885-2.109,3.781-3.059,5.673a84.475,84.475,0,0,1-3.446-9.309,82.269,82.269,0,0,1,9.779-1.681Zm-28.537,14.03c0-4.305,5.986-8.8,16.1-11.657a89.868,89.868,0,0,0,4.55,11.858,88.561,88.561,0,0,0-4.387,11.5c-10.209-2.859-16.26-7.374-16.26-11.7Zm23.012,35.652a5.592,5.592,0,0,1-2.835-.7c-3.139-1.812-4.249-7.226-3.046-14.854.258-1.633.614-3.331,1.061-5.075a88.467,88.467,0,0,0,12.139,1.948,88.714,88.714,0,0,0,7.985,9.84c-.414.4-.828.8-1.241,1.178-5.366,4.945-10.36,7.667-14.064,7.667Zm40.4-15.516c1.2,7.629.092,13.042-3.046,14.854s-8.383.067-14.388-4.789c-1.264-1.022-2.534-2.158-3.8-3.393a88.7,88.7,0,0,0,7.99-9.828,89.889,89.889,0,0,0,12.179-1.928c.448,1.748.806,3.447,1.064,5.083Zm-1.8-7.732a84.6,84.6,0,0,1-9.418,1.6q1.675-2.556,3.26-5.3,1.517-2.63,2.858-5.276a83.316,83.316,0,0,1,3.3,8.968Zm-3.287-15.435q-1.417-2.823-3.043-5.641-1.6-2.774-3.315-5.383a82.6,82.6,0,0,1,9.825,1.666,83.628,83.628,0,0,1-3.467,9.357Zm0,0" transform="translate(1890.646 900.155)" fill="#c8ac78"/>
    </g>
    <path id="Caminho_8316" data-name="Caminho 8316" d="M-1835.064-857.773a6.886,6.886,0,0,0-6.878,6.879,6.887,6.887,0,0,0,6.878,6.879,6.887,6.887,0,0,0,6.879-6.879,6.886,6.886,0,0,0-6.879-6.879Zm0,11.007a4.133,4.133,0,0,1-4.127-4.128,4.132,4.132,0,0,1,4.127-4.127,4.132,4.132,0,0,1,4.128,4.127,4.133,4.133,0,0,1-4.128,4.128Zm0,0" transform="translate(1878.17 889.298)" fill="#c8ac78"/>
  </g>
</svg>
