<svg xmlns="http://www.w3.org/2000/svg" width="42.567" height="46.183" viewBox="0 0 42.567 46.183">
  <g id="bar-chart" transform="translate(0.023 0.001)">
    <g id="Grupo_9040" data-name="Grupo 9040" transform="translate(0 13.229)">
      <g id="Grupo_9039" data-name="Grupo 9039">
        <path id="Caminho_109" data-name="Caminho 109" d="M55.245,177.806H53.321V149.079a2.4,2.4,0,0,0-2.358-2.425h-4.3a2.4,2.4,0,0,0-2.358,2.425v28.727H39.421V162.1a2.4,2.4,0,0,0-2.358-2.425h-4.3a2.4,2.4,0,0,0-2.358,2.425v15.712H25.521V169.67a2.4,2.4,0,0,0-2.358-2.425h-4.3A2.4,2.4,0,0,0,16.5,169.67v8.137H14.478a.9.9,0,1,0,0,1.8H55.245a.9.9,0,0,0,0-1.8Zm-31.478,0H18.26v-8.137a.613.613,0,0,1,.6-.621h4.3a.613.613,0,0,1,.6.621Zm13.9,0H32.16V162.1a.613.613,0,0,1,.6-.621h4.3a.613.613,0,0,1,.6.621Zm13.9,0H46.06V149.079a.613.613,0,0,1,.6-.621h4.3a.613.613,0,0,1,.6.621Z" transform="translate(-13.601 -146.654)" fill="#1a213b"/>
      </g>
    </g>
    <g id="Grupo_9042" data-name="Grupo 9042" transform="translate(7.521)">
      <g id="Grupo_9041" data-name="Grupo 9041">
        <path id="Caminho_110" data-name="Caminho 110" d="M131.544.949a.913.913,0,0,0-.255-.684A.86.86,0,0,0,130.623,0h-5.348a.89.89,0,0,0-.877.9.89.89,0,0,0,.877.9h3.277l-8.671,8.918-3.27-3.363a.86.86,0,0,0-1.24,0L99.6,23.575a.92.92,0,0,0,0,1.276.86.86,0,0,0,1.24,0L115.991,9.272l3.27,3.363a.86.86,0,0,0,1.24,0l9.291-9.555V6.13a.877.877,0,1,0,1.754,0V.992C131.546.978,131.544.963,131.544.949Z" transform="translate(-99.346)" fill="#fccc78"/>
      </g>
    </g>
    <g id="Grupo_9044" data-name="Grupo 9044" transform="translate(4.564 26.458)">
      <g id="Grupo_9043" data-name="Grupo 9043">
        <ellipse id="Elipse_37" data-name="Elipse 37" cx="0.877" cy="0.902" rx="0.877" ry="0.902" transform="translate(0 0)" fill="#1a213b"/>
      </g>
    </g>
  </g>
</svg>
