<svg xmlns="http://www.w3.org/2000/svg" width="16.869" height="16.735" viewBox="0 0 16.869 16.735">
  <g id="fast-forward" transform="translate(16.869 -0.767) rotate(90)">
    <g id="Double_Chevron_Right" transform="translate(0.767 0)">
      <path id="Caminho_55" data-name="Caminho 55" d="M94.044,7.683,86.777.311a1.046,1.046,0,0,0-1.489,0,1.07,1.07,0,0,0,0,1.5l6.526,6.619-6.526,6.619a1.07,1.07,0,0,0,0,1.5,1.046,1.046,0,0,0,1.489,0l7.266-7.371A1.1,1.1,0,0,0,94.044,7.683Z" transform="translate(-77.606 0)" fill="#000"/>
      <path id="Caminho_56" data-name="Caminho 56" d="M9.832,7.683,2.566.311a1.046,1.046,0,0,0-1.489,0,1.07,1.07,0,0,0,0,1.5L7.6,8.435,1.076,15.054a1.07,1.07,0,0,0,0,1.5,1.046,1.046,0,0,0,1.489,0L9.831,9.187A1.1,1.1,0,0,0,9.832,7.683Z" transform="translate(-0.767 0)" fill="#000"/>
    </g>
  </g>
</svg>
