<svg xmlns="http://www.w3.org/2000/svg" width="80.588" height="80.588" viewBox="0 0 80.588 80.588"><g transform="translate(0)"><g transform="translate(0 0)"><path d="M-1183.546-839.569a1.574,1.574,0,0,1-1.574-1.574,1.573,1.573,0,0,1,1.573-1.574h0a1.574,1.574,0,0,1,1.574,1.574,1.574,1.574,0,0,1-1.574,1.574Zm0,0" transform="translate(1219.082 886.266)" fill="#c8ac78"/><path d="M-1149.881-891.79a1.573,1.573,0,0,0-1.261-1.065l-5.732-.867-.921-5.72a1.578,1.578,0,0,0-1.069-1.247,1.574,1.574,0,0,0-1.6.383l-8.329,8.314a1.569,1.569,0,0,0-.45,1.31l.771,6.174-6.429,6.5a29.826,29.826,0,0,0-18.318-7.532v-4.125a1.575,1.575,0,0,0-1.574-1.575,1.575,1.575,0,0,0-1.574,1.575v4.125a29.945,29.945,0,0,0-28.313,28.256h-4.137a1.574,1.574,0,0,0-1.574,1.575,1.573,1.573,0,0,0,1.574,1.574h4.137a29.944,29.944,0,0,0,28.313,28.256v4.128a1.574,1.574,0,0,0,1.574,1.574,1.575,1.575,0,0,0,1.574-1.574v-4.127a29.944,29.944,0,0,0,28.313-28.256h4.138a1.574,1.574,0,0,0,1.574-1.574,1.574,1.574,0,0,0-1.574-1.574h-4.138a29.727,29.727,0,0,0-7.723-18.477l6.436-6.482,5.912,1.091a1.574,1.574,0,0,0,1.4-.433l8.618-8.6a1.571,1.571,0,0,0,.384-1.605Zm-18.178,34.508h-.584a1.574,1.574,0,0,0-1.574,1.574,1.573,1.573,0,0,0,1.574,1.574h.584a26.783,26.783,0,0,1-25.159,25.1v-.579a1.575,1.575,0,0,0-1.574-1.574,1.575,1.575,0,0,0-1.574,1.574v.579a26.784,26.784,0,0,1-25.158-25.1h.584a1.574,1.574,0,0,0,1.574-1.574,1.574,1.574,0,0,0-1.574-1.574h-.584a26.786,26.786,0,0,1,25.158-25.1v.581a1.574,1.574,0,0,0,1.574,1.574,1.575,1.575,0,0,0,1.574-1.574v-.581a26.671,26.671,0,0,1,16.1,6.619l-4.432,4.481a20.4,20.4,0,0,0-13.244-4.863,20.481,20.481,0,0,0-20.476,20.439,20.481,20.481,0,0,0,20.476,20.44,20.481,20.481,0,0,0,20.476-20.44,20.325,20.325,0,0,0-4.975-13.341l4.442-4.474a26.564,26.564,0,0,1,6.79,16.24Zm-24.008-1.134a1.575,1.575,0,0,0,1.108.457,1.572,1.572,0,0,0,1.117-.464l1.614-1.624a7.784,7.784,0,0,1,1.314,4.339,7.877,7.877,0,0,1-7.878,7.859,7.878,7.878,0,0,1-7.878-7.859,7.877,7.877,0,0,1,7.878-7.858,7.838,7.838,0,0,1,4.327,1.3l-1.613,1.631a1.573,1.573,0,0,0,.01,2.224Zm3.847-6.125a10.988,10.988,0,0,0-6.572-2.173,11.03,11.03,0,0,0-11.026,11.005,11.03,11.03,0,0,0,11.026,11.007,11.029,11.029,0,0,0,11.026-11.007,10.937,10.937,0,0,0-2.212-6.606l4.462-4.494a17.183,17.183,0,0,1,4.053,11.1,17.329,17.329,0,0,1-17.328,17.292,17.329,17.329,0,0,1-17.327-17.292A17.328,17.328,0,0,1-1194.792-873a17.272,17.272,0,0,1,11.023,3.958Zm27.7-19.856-4.875-.9-.626-5.013,5.608-5.6.614,3.818a1.574,1.574,0,0,0,1.319,1.306l3.783.572Zm0,0" transform="translate(1230.39 900.766)" fill="#c8ac78"/></g></g></svg>