<svg xmlns="http://www.w3.org/2000/svg" width="107" height="600" viewBox="0 0 107 600">
  <g id="Grupo_9614" data-name="Grupo 9614" transform="translate(-60 -2358.5)">
    <path id="Caminho_8395" data-name="Caminho 8395" d="M0,0V600" transform="translate(113.5 2358.5)" fill="none" stroke="#707070" stroke-width="1" opacity="0.3"/>
    <rect id="Retângulo_594" data-name="Retângulo 594" width="107" height="199" transform="translate(60 2559)" fill="#fff"/>
    <g id="lightbulb" transform="translate(90 2636.354)">
      <g id="Grupo_9046" data-name="Grupo 9046" transform="translate(0)">
        <g id="Grupo_9045" data-name="Grupo 9045">
          <path id="Caminho_111" data-name="Caminho 111" d="M119.766,93.2a14.241,14.241,0,0,0-9.555,24.974c2.285,2.256,2.077,7.077,2.025,7.128a.843.843,0,0,0,.26.667.964.964,0,0,0,.623.256h13.243a.865.865,0,0,0,.623-.256.968.968,0,0,0,.26-.667c0-.051-.26-4.872,2.025-7.128l.156-.154a14.2,14.2,0,0,0-9.659-24.82Zm8.309,23.64c-.052.051-.156.154-.156.205-2.025,2.154-2.389,5.692-2.441,7.384H114c-.052-1.692-.415-5.384-2.6-7.59a12.433,12.433,0,0,1-4.362-9.436,12.672,12.672,0,0,1,25.342,0A12.383,12.383,0,0,1,128.075,116.84Z" transform="translate(-96.324 -81.252)" fill="#171f38"/>
          <path id="Caminho_112" data-name="Caminho 112" d="M210.212,121.6a.872.872,0,1,0,0,1.744,9.394,9.394,0,0,1,9.452,9.333.883.883,0,0,0,1.766,0A11.1,11.1,0,0,0,210.212,121.6Z" transform="translate(-186.821 -106.011)" fill="#fccc78"/>
          <path id="Caminho_113" data-name="Caminho 113" d="M168.639,358.4H157.11a2.154,2.154,0,1,0,0,4.308h11.477a2.226,2.226,0,0,0,2.233-2.154A2.181,2.181,0,0,0,168.639,358.4Zm0,2.513H157.11a.407.407,0,0,1-.415-.41.38.38,0,0,1,.415-.41h11.477a.407.407,0,0,1,.415.41A.368.368,0,0,1,168.639,360.913Z" transform="translate(-139.484 -312.453)" fill="#171f38"/>
          <path id="Caminho_114" data-name="Caminho 114" d="M178.411,398.8h-8.1a2.154,2.154,0,1,0,0,4.308h8.1a2.181,2.181,0,0,0,2.181-2.154A2.148,2.148,0,0,0,178.411,398.8Zm0,2.513h-8.1a.407.407,0,0,1-.415-.41.38.38,0,0,1,.415-.41h8.1a.41.41,0,1,1,0,.821Z" transform="translate(-150.97 -347.673)" fill="#171f38"/>
          <path id="Caminho_115" data-name="Caminho 115" d="M210.212,7.692a.87.87,0,0,0,.883-.872V.872a.883.883,0,0,0-1.766,0V6.82A.9.9,0,0,0,210.212,7.692Z" transform="translate(-186.821 0)" fill="#fccc78"/>
          <path id="Caminho_116" data-name="Caminho 116" d="M297.833,33.278a.844.844,0,0,0-1.194.205l-3.324,4.923a.855.855,0,1,0,1.4.974l3.324-4.923A.789.789,0,0,0,297.833,33.278Z" transform="translate(-259.746 -28.868)" fill="#fccc78"/>
          <path id="Caminho_117" data-name="Caminho 117" d="M107.179,37.665a.845.845,0,0,0,.467-.154.892.892,0,0,0,.26-1.231l-3.22-4.974a.917.917,0,0,0-1.246-.256.892.892,0,0,0-.26,1.231l3.22,4.974A.865.865,0,0,0,107.179,37.665Z" transform="translate(-94.331 -26.947)" fill="#fccc78"/>
          <path id="Caminho_118" data-name="Caminho 118" d="M42.53,106.205l-5.245-2.82a.92.92,0,0,0-1.194.359.814.814,0,0,0,.364,1.179l5.245,2.82a1.235,1.235,0,0,0,.415.1.858.858,0,0,0,.779-.462A.9.9,0,0,0,42.53,106.205Z" transform="translate(-35.966 -90.052)" fill="#fccc78"/>
          <path id="Caminho_119" data-name="Caminho 119" d="M349.17,103.744a.92.92,0,0,0-1.194-.359l-5.3,2.82a.9.9,0,0,0-.364,1.179.858.858,0,0,0,.779.462.988.988,0,0,0,.415-.1l5.3-2.82A.9.9,0,0,0,349.17,103.744Z" transform="translate(-302.462 -90.052)" fill="#fccc78"/>
        </g>
      </g>
    </g>
  </g>
</svg>
