<svg xmlns="http://www.w3.org/2000/svg" xmlns:xlink="http://www.w3.org/1999/xlink" width="103" height="140" viewBox="0 0 103 140">
  <defs>
    <clipPath id="clip-path">
      <rect id="Retângulo_737" data-name="Retângulo 737" width="103" height="140" fill="#b08961"/>
    </clipPath>
  </defs>
  <g id="Grupo_10031" data-name="Grupo 10031" transform="translate(-108 -58)">
    <g id="Grupo_10030" data-name="Grupo 10030" transform="translate(108 58)">
      <g id="Grupo_10029" data-name="Grupo 10029" transform="translate(0)" clip-path="url(#clip-path)">
        <path id="Caminho_8612" data-name="Caminho 8612" d="M117.551,126.959V188.9a9.35,9.35,0,0,0,9.349,9.351h65.454A9.35,9.35,0,0,0,201.7,188.9V170.609l7.282-7.279a7.077,7.077,0,0,0,0-9.993l-7.282-7.282v-78.7A9.35,9.35,0,0,0,192.354,58H126.9a9.35,9.35,0,0,0-9.349,9.351V80.972l-2.933,2.933A7.049,7.049,0,0,0,112.8,87.04l-4.344,15.939a7.057,7.057,0,0,0,.037,3.86,91.41,91.41,0,0,0,9.063,20.12Zm17.913,23a106.123,106.123,0,0,0,43.112,26.976,7.1,7.1,0,0,0,3.859.04l14.593-3.988v4.227a4.675,4.675,0,0,1-4.674,4.676H126.9a4.675,4.675,0,0,1-4.674-4.676V134.184a117.729,117.729,0,0,0,13.237,15.77Zm56.89,43.619H126.9a4.675,4.675,0,0,1-4.674-4.676v-3.637a9.247,9.247,0,0,0,4.674,1.3h65.454a9.247,9.247,0,0,0,4.674-1.3V188.9a4.675,4.675,0,0,1-4.674,4.676Zm-14.746-130.9-3,3.2a4.692,4.692,0,0,1-3.413,1.478H148.056a4.677,4.677,0,0,1-3.411-1.478l-3-3.2Zm-50.708,0h8.339l6,6.393a9.372,9.372,0,0,0,6.821,2.956H171.2a9.393,9.393,0,0,0,6.824-2.954l5.993-6.395h8.339a4.675,4.675,0,0,1,4.674,4.676v38.92a52.98,52.98,0,0,0-8.76-11.454C176.691,83.246,165.12,81.47,164.633,81.4a2.338,2.338,0,0,0-.663,4.628,41.561,41.561,0,0,1,20.992,12.09,42.541,42.541,0,0,1,12.066,20.852v22.41l-4.761-4.761a7.23,7.23,0,0,0-9.993,0l-3.328,3.333-.017.011v.014l-9.115,9.131a45.58,45.58,0,0,1-21-12.49,45.376,45.376,0,0,1-12.476-21l9.129-9.131,3.343-3.343a7.069,7.069,0,0,0,0-9.993l-16.726-16.72a7.065,7.065,0,0,0-9.854-.113V67.351a4.675,4.675,0,0,1,4.674-4.676Zm-13.941,41.537,4.348-15.942a2.4,2.4,0,0,1,.615-1.06l2.476-2.476,11.721,11.721a2.337,2.337,0,0,0,3.306-3.3L123.7,81.43l1.69-1.693a2.4,2.4,0,0,1,3.381,0l16.719,16.719a2.4,2.4,0,0,1,0,3.383l-1.692,1.691-1.691-1.691a2.337,2.337,0,0,0-3.3,3.306l1.689,1.689-7.48,7.48a4.705,4.705,0,0,0-1.257,4.386,50.325,50.325,0,0,0,13.734,23.226,50.339,50.339,0,0,0,23.226,13.734A4.7,4.7,0,0,0,173.1,152.4l7.48-7.48,1.689,1.69a2.338,2.338,0,0,0,3.3-3.306l-1.689-1.689,1.689-1.694a2.448,2.448,0,0,1,3.383,0l16.72,16.723a2.394,2.394,0,0,1,0,3.383l-1.692,1.691L192.264,150a2.337,2.337,0,0,0-3.3,3.306l11.72,11.721-2.482,2.469a2.391,2.391,0,0,1-1.062.615l-15.942,4.349a2.455,2.455,0,0,1-1.317-.017,101.233,101.233,0,0,1-41.117-25.793,101.239,101.239,0,0,1-25.784-41.12,2.414,2.414,0,0,1-.016-1.316Zm0,0" transform="translate(-108.127 -58)" fill="#b08961"/>
      </g>
    </g>
    <path id="Caminho_8613" data-name="Caminho 8613" d="M244.638,165.055a33.588,33.588,0,0,1,23.74,23.734,2.338,2.338,0,1,0,4.628-.663,38.058,38.058,0,0,0-27.695-27.7,2.337,2.337,0,0,0-.674,4.625Zm0,0" transform="translate(-85.479 -65.004)" fill="#b08961"/>
    <path id="Caminho_8614" data-name="Caminho 8614" d="M238.177,203.447a17.321,17.321,0,0,1,12.063,12.045,2.338,2.338,0,1,0,4.628-.664,21.8,21.8,0,0,0-16.008-16.008,2.338,2.338,0,1,0-.681,4.627Zm0,0" transform="translate(-81.364 -89.37)" fill="#b08961"/>
  </g>
</svg>
