<svg xmlns="http://www.w3.org/2000/svg" width="80.399" height="80.4" viewBox="0 0 80.399 80.4"><path d="M-852.97-889.949l-10.278-10.279a3.845,3.845,0,0,0-5.431,0l-19.353,19.353a1.241,1.241,0,0,0,0,1.755,1.241,1.241,0,0,0,1.755,0l19.353-19.353a1.349,1.349,0,0,1,.96-.4,1.348,1.348,0,0,1,.96.4l10.279,10.279a1.349,1.349,0,0,1,.4.96,1.349,1.349,0,0,1-.4.96l-2.523,2.523-6.609-6.609a1.241,1.241,0,0,0-1.755,0,1.242,1.242,0,0,0,0,1.755L-859-882l-2.882,2.882-2.905-2.905a1.242,1.242,0,0,0-1.755,0,1.242,1.242,0,0,0,0,1.755l2.905,2.905-2.882,2.882-2.905-2.905a1.242,1.242,0,0,0-1.755,0,1.241,1.241,0,0,0,0,1.755l2.905,2.905-2.882,2.882-6.609-6.609a1.242,1.242,0,0,0-1.755,0,1.241,1.241,0,0,0,0,1.755l6.609,6.609-2.882,2.882-2.905-2.9a1.241,1.241,0,0,0-1.755,0,1.24,1.24,0,0,0,0,1.754l2.905,2.905-2.438,2.438-12.2-12.2,2.269-2.269a1.241,1.241,0,0,0,0-1.755,1.241,1.241,0,0,0-1.754,0l-2.27,2.27-22.89-22.89a8.376,8.376,0,0,0-5.961-2.469,8.375,8.375,0,0,0-5.96,2.469,8.374,8.374,0,0,0-2.469,5.96,8.373,8.373,0,0,0,2.469,5.96l22.89,22.891-25.26,25.26a3.845,3.845,0,0,0,0,5.431l10.279,10.279a3.817,3.817,0,0,0,2.715,1.124,3.817,3.817,0,0,0,2.715-1.124l25.26-25.26,1.8,1.8a1.24,1.24,0,0,0,1.754,0,1.241,1.241,0,0,0,0-1.755l-2.483-2.484a1.283,1.283,0,0,0-.172-.215,1.219,1.219,0,0,0-.215-.171l-26.888-26.888,3.328-3.328,2.058,2.058a1.237,1.237,0,0,0,.878.364,1.237,1.237,0,0,0,.878-.364,1.242,1.242,0,0,0,0-1.755l-2.058-2.057,3.328-3.328,13.124,13.125h0l0,0,13.831,13.831a1.311,1.311,0,0,0,.112.131,1.287,1.287,0,0,0,.13.111l18.415,18.416-3.328,3.327-18.58-18.58c-.011-.012-.021-.025-.033-.036l-7.409-7.409c-.012-.012-.026-.023-.038-.035L-904.8-875.66a1.24,1.24,0,0,0-1.754,0,1.241,1.241,0,0,0,0,1.755l39.147,39.147-3.328,3.327-11.793-11.793a1.241,1.241,0,0,0-1.755,0,1.242,1.242,0,0,0,0,1.755l12.67,12.67a1.259,1.259,0,0,0,.429.279L-856.2-822.7a2.009,2.009,0,0,0,.728.136,2.015,2.015,0,0,0,1.425-.59,2.014,2.014,0,0,0,.452-2.152l-5.827-14.986a1.254,1.254,0,0,0-.278-.428l-18.536-18.536,25.263-25.263A3.844,3.844,0,0,0-852.97-889.949ZM-927-896.1a5.954,5.954,0,0,1,8.41,0l3.922,3.922-8.41,8.41L-927-887.689A5.954,5.954,0,0,1-927-896.1Zm32.655,49.445-2.9-2.905a1.241,1.241,0,0,0-1.755,0,1.241,1.241,0,0,0,0,1.755l2.905,2.9-2.882,2.883-6.609-6.609a1.24,1.24,0,0,0-1.754,0,1.241,1.241,0,0,0,0,1.755l6.609,6.609-2.883,2.882-2.9-2.905a1.242,1.242,0,0,0-1.755,0,1.241,1.241,0,0,0,0,1.755l2.905,2.905-2.883,2.882-2.9-2.905a1.242,1.242,0,0,0-1.755,0,1.241,1.241,0,0,0,0,1.755l2.905,2.905-2.883,2.882-6.609-6.609a1.241,1.241,0,0,0-1.754,0,1.241,1.241,0,0,0,0,1.755l6.609,6.609-2.523,2.523a1.349,1.349,0,0,1-.96.4,1.348,1.348,0,0,1-.96-.4l-10.279-10.279a1.359,1.359,0,0,1,0-1.921l25.26-25.26,12.2,12.2Zm-19.562-36.354h0l-4.2,4.2-3.21-3.209,8.41-8.41,3.21,3.209Zm45.389,52.865,7.475-7.475,4.753,12.222Z" transform="translate(932.246 901.351)" fill="#c8ac78"/></svg>