<?xml version="1.0" encoding="utf-8"?>
<!-- Generator: Adobe Illustrator 19.0.0, SVG Export Plug-In . SVG Version: 6.00 Build 0)  -->
<svg version="1.1" id="Layer_1" xmlns="http://www.w3.org/2000/svg" xmlns:xlink="http://www.w3.org/1999/xlink" x="0px" y="0px"
	 viewBox="0 0 430 310" enable-background="new 0 0 430 310" xml:space="preserve">
<g id="Logo">
	<g id="for_small">
		<path id="mall" fill="#FFFFFF" d="M420.1,239.9c-1.7,3.1-15.1,16.9-20.6,16.9c-3.2,0-4.3-9.3-4.3-11c0-4,1.4-10.8,2.8-13.1
			c2.6-4,7.5-9.3,8.8-11c3-4.2,10.8-13.4,10.8-22.9c0-3.1-4.3-5.3-6.4-5.3c-1.1,0.7-6.5,8.6-9.1,13.8c-3.8,7-10.8,19.6-13.2,30.6
			c-0.7,1-1.3,1.9-1.5,2.1c0,0,0,0,0,0c-1.7,3.1-15.1,16.9-20.6,16.9c-3.2,0-4.3-9.3-4.3-11c0-4,1.4-10.8,2.8-13.1
			c2.6-4,7.5-9.3,8.8-11c3-4.2,10.8-13.4,10.8-22.9c0-3.1-4.3-5.3-6.4-5.3c-1.1,0.7-6.5,8.6-9.1,13.8c-3.7,6.9-10.6,19.3-13.1,30.2
			c-0.8,1.2-1.7,2.3-1.8,2.5c-2.2,2.7-8.2,8.9-12.3,12.2c-1.8,1.4-5.3,3.1-6.1,3.1c-0.3,0.1-0.4-0.1-0.5-0.5l-0.2-0.5l-0.1-3.1
			c0-5.9,5.1-15,7.2-19c0.3-0.7,0.8-1,1.5-2c0.3-0.3,0.3-0.6,0.2-1.2l-0.2-0.8c-1-1.3-2.4-1-3.7-1.7c0.3-1.3-0.2-2.8-0.5-3.6
			c-0.5-0.5-5-3.3-5.8-3.3c-3.2,0-4.4,1.8-5.7,2.7c-0.1,0.1-0.2,0.1-0.3,0.2l0,0c0,0,0,0,0,0c-0.1,0.1-0.3,0.2-0.4,0.3
			c-1.6,1.2-2.9,2.2-3.8,3c-0.3,0.1-1.2,0.9-2.2,2c0,0,0,0,0,0l0,0c-2.9,3-7.6,8.5-9.5,11.2c0,0,0,0,0,0c-1.1,1.2-2.1,2.1-3,3
			c-2.7,2.7-6,5.4-6,5.4l0,0c-2.3,1.6-6.5,4.8-9.6,6.2c-1.1-1-1.1-1.6-1.1-3c0-4.3,2.6-10.4,4-15.4c0.4-1.8,1.8-7,1.8-7.7
			c0-1.3-2.3-3.7-4.5-3.7c-2.2,0-6,4.5-8.6,8.3v0c-2,2.6-3.7,4.4-4.5,5.1c-0.1,0.1-1.1,0.2-1.2,0.3c0,0-0.9,0-0.9,0v0
			c-1,0.7-0.8,1.9-1.4,2.3l1.8-10.8c0-1.9-3.8-3.2-6.3-3.2c-0.8,0-6.8,7.1-10.8,11c-0.2-0.2-0.2-0.3-0.2-0.3c0-0.1,0-0.1,0.1-0.2
			c1-2.9,1.9-5.7,3.2-8.8c-1.1-1.1-4.3-2.4-6.3-2.4c-1,0-3.6,10.6-5.5,16.1c-1.7,4.5-2.6,8.4-4.7,12.6c-0.2,1,2.6,4,3.5,4
			c2.6,0,7.6-8.6,8.5-9.6c3.7-4.1,8-8.8,11.2-12c0.3,2.3-2.8,13.9-2.8,15c0,2.2,3.7,4.5,5.7,4.5c2.6,0,4.6-6.7,5.1-7.2
			c2.9-4.1,5.5-7.8,8.5-11.7c-0.7,3.9-2.1,10.4-2.1,11.2c0,4.5,0.6,6.3,4.6,9.3c-0.3,0.3,2.3,0.9,2.3,1.2c1,0.3,1.6,0.3,2.3,0.3
			c1,0,6.4-3.4,7.7-4.3c0.1,0,1.7-1.6,3.7-3.8c0,0.5,0,0.9,0,1.3c0,2.1,5.6,6.9,7.3,6.9c4.8,0,11.7-6.4,14.8-9
			c0.3,1.6-0.2,6.9,3.4,9c0,0-0.9,0-0.9,0.1v0c0,0,2.9,1.6,4.4,2.1c1.5,0.5,5-0.6,8.2-3.6c2.8-2.1,8.4-8.6,9.1-9.7
			c0.8-1.2,1.6-2.3,2.2-3.3c0,0,0.1,0,0.1,0c0,6.8,4.9,12.6,5.5,13.2c1.7,1.9,5.7,4.5,7.5,4.5c6.3-0.4,15.1-9,19.2-16.3
			c0,0,0.3-0.5,0.6-1.2c0.1,6.6,4.9,12.3,5.5,12.9c1.7,1.9,5.7,4.5,7.5,4.5c6.3-0.4,15.1-9,19.2-16.3c0,0,1.9-3.4,1.9-4.6
			C422,241.4,421.6,239.4,420.1,239.9z M407.1,210.4c1.6-2.8,5.2-8.7,5.2-8.7c1.9,6.2-4.7,11.9-6.9,15.6c-2.1,3.5-4.8,6.5-5,6.3
			C401.4,220.5,404.3,215.2,407.1,210.4z M375.1,208.4c1.6-2.8,5.2-8.7,5.2-8.7c1.9,6.2-4.7,11.9-6.9,15.6c-2.1,3.5-4.8,6.5-5,6.3
			C369.4,218.5,372.4,213.2,375.1,208.4z M328.9,240.4c-2.9,3.9-7.2,8.4-9.9,10.4c-1.3,1-2.9,3.1-4.9,4.1h-1.5
			c-0.1,0-0.1-0.8-0.2-0.8c-0.1-0.1-0.2-0.7-0.2-1.1c0-7.7,18.7-26.5,22.5-26.5c0.7,0.8,1,1.5,1,2.2
			C335.8,231.2,329.6,239.8,328.9,240.4z"/>
		<path id="s" fill="#FFFFFF" d="M238.3,215.1c-5.1,0-12.6,1-12.9,10.8c-0.3,2.1,3.2,22.3,2.9,24.4c0.7,6-5,7.1-6.7,7.1
			c-0.8,0-3-1.2-3-2.9c0-1,1.7-2.1,1.8-3c0-0.8-0.1-0.9-0.7-1.2c-0.8-0.2-1.6-0.1-2.4,0.2c-1.4,0.6-2.8,2.9-2.8,3.3
			c-0.3,5.5,6.1,9.2,10.3,9.5c6.6,0.3,10-3.7,10.3-9.2c0-7-3.2-21.9-3.2-23.9c-0.4-6.7,1.6-9.3,7.5-9.2c0.3,0,2.3,0.3,2.3,1.5
			c0,1-2.6,3.5-2.6,4.3c0,0.4,0.7,2.3,3,2.4l1.4,0.2c2.8,0,5.7-5.2,5.7-6C249.1,218.4,242.1,215.1,238.3,215.1z"/>
		<path id="r" fill="#FFFFFF" d="M177.5,220.5c-4.2-0.3-13.7,5.6-15.3,9.5c0-1.5,2.3-5.4,2.3-6.1c0-0.8-3-3.5-5.1-3.7
			c-0.7,0-1.7,1.3-1.9,1.9c-3.5,10.9-10.4,32-10.4,32.4c-0.2,1.3,3.4,4.4,4.7,4.7c1,0,1.7,0,2.2-1.3c0.9-2.7,3.9-12,5-14.3
			c2.7-5.6,4.8-7.3,7.6-10.3c2.8-3.1,6-4.4,10.2-5.4h0.8c0.3,0,0.5-0.5,0.4,0.2c0,0.7-1.7,5.4-1.9,5.9c0,0.8,0,0.8,0.7,1.1
			c0.6,0.1,1.3,0,2.3-0.2l1.5-0.3c2.1-1,4.7-6.4,5-8C185.7,223.1,179.8,220.8,177.5,220.5z"/>
		<path id="o" fill="#FFFFFF" d="M135.7,219.7c-0.8-0.3-1.6-0.6-2.3-0.8c-1.6-0.2-3.4,0.2-5.4,1.2l0,0c-5.2,2-8.8,7.7-8.8,7.7h0
			c-2.9,3.9-6.2,9.9-7.1,12c-1.1,2.8-2,7.4-2,8c0,4.3,3.4,12.9,10.9,13.1c10.4,0,21.2-17.1,21.6-27.8c0.1-3.6-0.4-6.5-2.8-10.3
			C138.7,221.6,137.1,220.5,135.7,219.7z M118.3,255.1c-1.3-0.8-1.5-2.9-1.5-3.9c0-4.8,2.1-9.4,5-14c1.5-2.3,3.5-5.1,6-8.5
			c2.5-3.4,4.3-5.4,5.5-5.8c1.3-0.4,2.3,0.9,3,2.7c0.4,0.9,0.7,2.6,0.8,5.2C136.8,238.1,126.8,252.8,118.3,255.1z"/>
		<path id="f" fill="#FFFFFF" d="M116.9,223.3c0-0.7-0.1-1.1-0.3-1.3c-0.3-0.1-1-0.1-1.8-0.1c-0.4,0-1,0-1.4,0.1
			c-1,0-9.3,0.8-12.3,1.3l-2.1,0.3c-0.4,0.1-0.8,0.1-1.2,0.1c0-3,11.5-36.6,12.9-39.4c1.1-2,2.3-5.4,4.6-5.8
			c1.1,1.7,1.7,5.4,1.7,7.6c0,1-1.1,2.2-0.9,3.1c0.3,0.3,0.6,0.4,1,0.3c0.3,0,0.5-0.1,0.7-0.3c2.3-1.1,3-1.8,3.1-4.3
			c0.3-2.3-2.7-12.8-8.1-13c-3-0.3-7.8,7.5-12.4,21c-1.5,5.2-4.7,15-10.3,32.1c-1.6,0.4-5.8,1.9-6.5,3.5c0,2.2,3.2,5.2,3.2,6.3
			c-0.2,1.5-7.1,23-9.2,29.5c-2.4,6.2-12.4,31.3-12.4,32.1c-0.2,2.2,2.9,4.4,4.9,4.4c0.8,0,1.2-0.3,1.5-0.4c0.7-0.6,0.5-1.7,0.8-2.3
			l3.4-9.9c4.2-12.2,9.5-25.7,12.5-35.3c2.3-7.2,4.3-15.1,7.5-22c3-0.9,5.7-1.7,8.2-2.3c4.3-1.3,9-2.4,10.2-2.9
			C115,225.1,116.8,223.9,116.9,223.3z"/>
	</g>
	<g id="DNA_de_Vendas">
		<g id="de_Vendas">
			<path id="Vendas" fill="#FFFFFF" d="M137.6,188.7l-14.6-34.6h5.5l7.3,17.7c0.4,1,0.8,2,1.1,2.9c0.3,0.9,0.5,1.7,0.7,2.5
				c0.2-0.8,0.4-1.7,0.7-2.6c0.3-0.9,0.6-1.8,1.1-2.8l7.3-17.7h5.5L137.6,188.7L137.6,188.7z M176.7,187.4v-33.3h18.2v4.6H182v8.3
				h12.9v4.7H182v10.7h12.9v4.8H176.7L176.7,187.4z M222.2,187.4v-34.6l20.7,20.3c0.6,0.6,1.1,1.2,1.7,1.8c0.6,0.7,1.2,1.4,1.8,2.2
				v-23.1h4.9v34.6L230.2,168c-0.6-0.6-1.1-1.1-1.6-1.8c-0.5-0.6-1-1.3-1.5-2v23.1H222.2L222.2,187.4z M285.4,182.5h4.5
				c2.5,0,4.3-0.2,5.5-0.5c1.2-0.3,2.3-0.9,3.2-1.7c1.2-1.1,2.2-2.4,2.8-4c0.6-1.6,0.9-3.5,0.9-5.6c0-2.1-0.3-4-0.9-5.6
				c-0.6-1.6-1.5-2.9-2.8-4c-0.9-0.8-2-1.3-3.3-1.7c-1.3-0.3-3.3-0.5-6-0.5h-1.9h-1.9V182.5L285.4,182.5z M280.1,187.4v-33.3h7.2
				c4.7,0,7.9,0.2,9.8,0.7c1.9,0.5,3.6,1.3,5,2.4c1.9,1.5,3.3,3.4,4.3,5.7c1,2.3,1.5,4.9,1.5,7.9c0,3-0.5,5.6-1.5,7.9
				c-1,2.3-2.4,4.2-4.3,5.6c-1.4,1.1-3.1,1.9-4.9,2.4c-1.8,0.5-4.7,0.7-8.5,0.7h-1.4H280.1L280.1,187.4z M341.2,174.3h9.1l-3.3-7.6
				c-0.2-0.5-0.4-1-0.6-1.7c-0.2-0.6-0.4-1.3-0.6-2.1c-0.2,0.7-0.4,1.4-0.6,2c-0.2,0.6-0.4,1.2-0.6,1.7L341.2,174.3L341.2,174.3z
				 M355.8,187.4l-3.7-8.6h-12.9l-3.8,8.6h-5.6l15.8-34.6l15.8,34.6H355.8L355.8,187.4z M383.8,180.7l4.2-2c0.4,1.5,1.1,2.6,2.2,3.4
				c1.1,0.8,2.4,1.2,4.1,1.2c1.6,0,2.8-0.4,3.8-1.3c0.9-0.9,1.4-2.1,1.4-3.6c0-2-1.6-3.7-4.8-5.2c-0.4-0.2-0.8-0.4-1-0.5
				c-3.6-1.8-6-3.4-7.2-4.9c-1.2-1.4-1.8-3.2-1.8-5.3c0-2.7,0.9-4.9,2.7-6.6c1.8-1.7,4.2-2.5,7.1-2.5c2.4,0,4.4,0.5,6,1.4
				c1.6,0.9,2.7,2.3,3.4,4.1l-4.1,2.2c-0.7-1-1.4-1.8-2.2-2.3c-0.8-0.5-1.7-0.7-2.7-0.7c-1.4,0-2.6,0.4-3.4,1.1
				c-0.8,0.8-1.3,1.8-1.3,3c0,2,1.8,3.9,5.5,5.6c0.3,0.1,0.5,0.2,0.7,0.3c3.2,1.5,5.4,3,6.7,4.4c1.2,1.5,1.8,3.3,1.8,5.4
				c0,3.1-1,5.7-2.9,7.5c-1.9,1.9-4.6,2.8-7.9,2.8c-2.8,0-5.1-0.7-6.8-2C385.5,185,384.4,183.1,383.8,180.7z"/>
			<path id="de" fill="#FFFFFF" d="M13.4,182.9h4.5c2.5,0,4.4-0.2,5.6-0.5c1.2-0.3,2.3-0.9,3.3-1.7c1.3-1.1,2.2-2.4,2.8-4.1
				c0.6-1.6,0.9-3.5,0.9-5.7c0-2.1-0.3-4-0.9-5.7c-0.6-1.6-1.6-3-2.8-4.1c-0.9-0.8-2.1-1.4-3.4-1.7c-1.3-0.3-3.4-0.5-6.1-0.5h-1.9
				h-1.9V182.9L13.4,182.9z M8,187.9v-33.7h7.3c4.7,0,8,0.2,10,0.7c1.9,0.5,3.6,1.3,5.1,2.4c1.9,1.5,3.4,3.4,4.4,5.7
				c1,2.3,1.5,5,1.5,8c0,3-0.5,5.7-1.5,8c-1,2.3-2.4,4.2-4.4,5.7c-1.5,1.1-3.1,1.9-4.9,2.4c-1.9,0.5-4.7,0.7-8.6,0.7h-1.5H8L8,187.9
				z M63.8,187.9v-33.7h18.5v4.7H69.2v8.5h13.1v4.8H69.2V183h13.1v4.9H63.8z"/>
		</g>
		<g id="DNA">
			<polygon id="A" fill="#FFFFFF" points="269.1,9.2 309.5,9.2 405.7,139.5 378.7,139.5 295.5,30 295.4,139.5 295.4,139.5 
				295.4,139.5 269.1,139.5 			"/>
			<polygon id="N" fill="#FFFFFF" points="137.6,140.1 137.6,9.5 177.4,9.5 235.2,119.8 235.1,9.5 260.5,9.5 260.5,140.1 
				220.5,140.1 161.7,30.1 161.9,140.1 			"/>
			<path id="D" fill="#FFFFFF" d="M33.3,119.3h21c19.5,0,33-3.2,40.5-9.7c7.6-6.5,11.3-18,11.3-34.6c0-16.3-3.8-27.7-11.6-34.5
				c-7.7-6.8-20.8-10.2-39.3-10.2H33.3V119.3L33.3,119.3z M8.3,140.1V9.5H59c12.9,0,22.5,0.6,28.8,1.7c6.3,1.1,11.8,3.1,16.5,5.7
				c9.1,5.3,15.8,12.8,20.4,22.4c4.6,9.7,6.8,21.5,6.8,35.6c0,14.8-2.8,27.2-8.5,37.3c-5.6,10.1-14,17.6-24.9,22.5
				c-4.3,2-9.6,3.4-16,4.2c-6.4,0.8-16.7,1.2-30.8,1.2H8.3z"/>
		</g>
	</g>
</g>
</svg>
