<svg id="Grupo_6" data-name="Grupo 6" xmlns="http://www.w3.org/2000/svg" width="110.008" height="115.449" viewBox="0 0 110.008 115.449">
  <g id="Grupo_5" data-name="Grupo 5">
    <path id="Caminho_34" data-name="Caminho 34" d="M1319.539,1487.408h-8.218V1417.3a2.955,2.955,0,0,0-2.952-2.952H1298.31a2.956,2.956,0,0,0-2.953,2.952v8.753a1.691,1.691,0,1,0,3.382,0v-8.323h9.2v69.678h-9.2v-53.487a1.691,1.691,0,0,0-3.382,0v53.487h-7.738v-51.584a2.956,2.956,0,0,0-2.954-2.952h-10.057a2.956,2.956,0,0,0-2.953,2.952v51.584h-7.738v-32.964a2.956,2.956,0,0,0-2.953-2.953h-10.058a2.957,2.957,0,0,0-2.953,2.953v32.964h-7.738v-14.393a2.957,2.957,0,0,0-2.953-2.953H1227.2a2.956,2.956,0,0,0-2.953,2.953v3.477a1.691,1.691,0,1,0,3.382,0v-3.048h9.2v13.964h-9.2v-3.048a1.691,1.691,0,0,0-3.382,0v3.048h-8.217a3.158,3.158,0,0,0-3.155,3.155v5.307a3.158,3.158,0,0,0,3.155,3.155h103.506a3.158,3.158,0,0,0,3.155-3.155v-5.307a3.158,3.158,0,0,0-3.155-3.155Zm-44.5-51.155h9.2v51.155h-9.2Zm-23.7,18.619h9.2v32.535h-9.2Zm67.978,40.77H1216.26v-4.852h103.051Zm0,0" transform="translate(-1212.686 -1383.576)" fill="#B08961"/>
    <path id="Caminho_35" data-name="Caminho 35" d="M1217.532,1463.15a4.757,4.757,0,0,0,1.593-.275,131.078,131.078,0,0,0,25.028-12.46,188.706,188.706,0,0,0,28.07-21.613,225.265,225.265,0,0,0,20.355-21.6l2.779,4.755a2.377,2.377,0,0,0,4.428-1.135l.544-20.432a2.377,2.377,0,0,0-3.424-2.2h0l-18.335,9.029a2.376,2.376,0,0,0,.817,4.5l4.828.476a214.648,214.648,0,0,1-18.445,19.457,179.247,179.247,0,0,1-26.571,20.505,123.175,123.175,0,0,1-23.274,11.65,4.809,4.809,0,0,0,1.609,9.344Zm-1.3-5.415a1.425,1.425,0,0,1,.818-.74,126.725,126.725,0,0,0,23.939-11.972,182.771,182.771,0,0,0,27.077-20.891,220.076,220.076,0,0,0,20.785-22.242,1.691,1.691,0,0,0-1.145-2.753l-4.481-.441,13.677-6.734-.408,15.24-2.225-3.81a1.693,1.693,0,0,0-2.774-.212,223.25,223.25,0,0,1-21.574,23.139,185.51,185.51,0,0,1-27.563,21.228,127.713,127.713,0,0,1-24.365,12.14,1.428,1.428,0,0,1-1.813-.858,1.41,1.41,0,0,1,.052-1.094Zm0,0" transform="translate(-1212.713 -1387.946)" fill="#B08961"/>
  </g>
</svg>
