<svg xmlns="http://www.w3.org/2000/svg" width="46.977" height="39.152" viewBox="0 0 46.977 39.152">
  <g id="Grupo_9997" data-name="Grupo 9997" transform="translate(-0.051 -42.686)">
    <path id="Caminho_8471" data-name="Caminho 8471" d="M15.943,67.519,34.972,53.345a.783.783,0,1,0-.935-1.253L14.91,66.333,1.123,60.752A.783.783,0,0,0,.536,62.2L14.4,67.812l3.7,12.9a1.553,1.553,0,0,0,1.5,1.122h.018a1.538,1.538,0,0,0,1.018-.41.68.68,0,0,0,.078-.055l7.569-7.74,10.149,4.024a2.282,2.282,0,0,0,2.013-.113,2.342,2.342,0,0,0,1.18-1.7l2.561-17.13L47,44.571a1.575,1.575,0,0,0-.532-1.526,1.55,1.55,0,0,0-1.57-.247L5.235,58.8a.783.783,0,0,0,.587,1.453L43.708,44.97,24.915,67.136a.783.783,0,0,0,1.195,1.012l19.078-22.5-2.55,12.8L40.07,75.607a.783.783,0,0,1-.392.569.74.74,0,0,1-.66.031l-10.679-4.2-5.124-2.146a.783.783,0,0,0-1.025.419.752.752,0,0,0-.033.165h-.019l-2.544,9.825Zm7.5,4.139,2.589,1.087.667.265-4.909,5.02Z" transform="translate(0)" fill="#fff"/>
  </g>
</svg>
