<svg id="Grupo_9" data-name="Grupo 9" xmlns="http://www.w3.org/2000/svg" width="110" height="80.752" viewBox="0 0 110 80.752">
  <g id="Grupo_8" data-name="Grupo 8" transform="translate(0 0)">
    <path id="Caminho_37" data-name="Caminho 37" d="M1717.858,1446.67a1.939,1.939,0,0,0,1.733-3.468c-4.5-2.25-12.944-2.277-13.3-2.277a1.939,1.939,0,1,0,0,3.877C1708.468,1444.8,1714.792,1445.137,1717.858,1446.67Z" transform="translate(-1625.009 -1406.924)" fill="#c8ac78"/>
    <path id="Caminho_38" data-name="Caminho 38" d="M1728.125,1467.066l-6.654-1.9a.676.676,0,0,1-.488-.648V1462.3a12.153,12.153,0,0,0,1.54-1.263,11.858,11.858,0,0,0,3.629-8.576v-3.065l.643-1.287a10.281,10.281,0,0,0,1.079-4.573v-8.3a1.611,1.611,0,0,0-1.611-1.612h-15.506a10.238,10.238,0,0,0-10.226,10.226v.1a8.543,8.543,0,0,0,.9,3.8l.825,1.651v2.632a12.573,12.573,0,0,0,5.168,10.165v2.328c0,.359,0,.507-1.33.888l-3.247.928-9.393-3.416a1.61,1.61,0,0,0-.44-1.234l-3-3.154v-5.294c.318-.262.631-.53.933-.815a18.91,18.91,0,0,0,5.959-13.747v-4.228a18.628,18.628,0,0,0,1.722-7.832v-17.229a1.611,1.611,0,0,0-1.611-1.611h-24.12a15.412,15.412,0,0,0-15.395,15.395v3.446a18.63,18.63,0,0,0,1.723,7.833v3.637a19.69,19.69,0,0,0,6.891,15.028v5.418l-3,3.154a1.606,1.606,0,0,0-.439,1.234l-9.914,3.6a8.449,8.449,0,0,0-1.993,1.043l-1.556-.779c4.634-2.017,6.1-4.854,6.172-5a1.612,1.612,0,0,0,0-1.441c-1.161-2.323-1.3-6.582-1.416-10-.037-1.139-.073-2.215-.141-3.173-.549-7.729-6.425-13.558-13.667-13.558s-13.118,5.829-13.667,13.558c-.068.958-.1,2.034-.141,3.173-.113,3.422-.254,7.679-1.416,10a1.611,1.611,0,0,0,0,1.441c.071.141,1.536,2.973,6.179,4.992l-4.324,2.162a6.743,6.743,0,0,0-3.748,6.064v11.9a1.612,1.612,0,1,0,3.223,0v-11.9a3.54,3.54,0,0,1,1.966-3.182l5.385-2.692,1.873,1.781a6.779,6.779,0,0,0,9.341,0l1.873-1.781,1.755.878a8.476,8.476,0,0,0-1.3,4.5v12.4a1.611,1.611,0,1,0,3.222,0v-12.4a5.3,5.3,0,0,1,3.476-4.962l10.453-3.8,4.351,6.528a3.321,3.321,0,0,0,2.446,1.469c.111.01.221.016.333.016a3.319,3.319,0,0,0,2.353-.976l2.655-2.655v16.784a1.612,1.612,0,0,0,3.223,0v-16.784l2.655,2.655a3.321,3.321,0,0,0,2.354.977,3.228,3.228,0,0,0,.332-.017,3.321,3.321,0,0,0,2.445-1.469l4.352-6.527,10.452,3.8a5.3,5.3,0,0,1,3.476,4.962v12.4a1.611,1.611,0,1,0,3.222,0v-12.4a8.519,8.519,0,0,0-2.383-5.9l.4-.113a8.765,8.765,0,0,0,1.5-.542l4.114,4.114v14.838a1.611,1.611,0,1,0,3.222,0v-14.838l4.086-4.085a3.847,3.847,0,0,0,.686.272l6.654,1.9a3.572,3.572,0,0,1,2.581,3.42v13.329a1.611,1.611,0,0,0,3.222,0v-13.329A6.809,6.809,0,0,0,1728.125,1467.066Zm-81.186-2.841V1462.3a11.909,11.909,0,0,0,4.254-5.253,17.732,17.732,0,0,0,.918,3.85A11.647,11.647,0,0,1,1646.939,1464.225Zm-17.232-16.822a11.96,11.96,0,0,1,3.257-7.513,10.011,10.011,0,0,1,14.391,0,11.96,11.96,0,0,1,3.257,7.513c.065.9.1,1.944.135,3.051l.01.288a14.478,14.478,0,0,0-7.96-5.816,20.269,20.269,0,0,0-6.128-.972,1.617,1.617,0,0,0-1.115.493l-2.907,3.015a1.611,1.611,0,0,0,2.32,2.237l2.419-2.509c2.084.1,8.786.881,11.393,6.622a8.725,8.725,0,0,1-17.345-1.355,1.6,1.6,0,0,0-1.876-1.587c.005-.138.009-.277.015-.415C1629.608,1449.347,1629.643,1448.3,1629.707,1447.4Zm-1.5,13.5a17.742,17.742,0,0,0,.919-3.858,12.023,12.023,0,0,0,4.253,5.247v1.931A11.594,11.594,0,0,1,1628.208,1460.9Zm9.5,7.68-1.5-1.424a3.338,3.338,0,0,0,.392-1.573v-1.717a11.992,11.992,0,0,0,7.115,0v1.716a3.328,3.328,0,0,0,.392,1.575l-1.5,1.423A3.555,3.555,0,0,1,1637.709,1468.58Zm24.736-30.5v-4a1.6,1.6,0,0,0-.16-.7,15.467,15.467,0,0,1-1.562-6.772v-3.446A12.185,12.185,0,0,1,1672.894,1411H1695.4v15.617a15.452,15.452,0,0,1-1.563,6.772,1.615,1.615,0,0,0-.16.7v4.588a15.473,15.473,0,0,1-4.939,11.4q-.6.558-1.237,1.047l-.028.021a15.5,15.5,0,0,1-10.455,3.119C1668.847,1453.729,1662.445,1446.625,1662.445,1438.084Zm14.366,19.39c.425.027.847.041,1.268.041a18.663,18.663,0,0,0,8.709-2.134v2.942l-8.726,5.965-8.726-5.965v-3.007A18.153,18.153,0,0,0,1676.811,1457.474Zm-5.293,13.032a.112.112,0,0,1-.172-.017l-5.011-7.517,1.612-1.7,7.6,5.2Zm13.262-.017a.1.1,0,0,1-.082.049.1.1,0,0,1-.09-.032l-4.032-4.032,7.6-5.2,1.613,1.694Zm20.7-18.466v-3.012a1.6,1.6,0,0,0-.17-.72l-.995-1.99a5.306,5.306,0,0,1-.557-2.362v-.1a7.01,7.01,0,0,1,7-7h13.895v6.693a7.046,7.046,0,0,1-.739,3.132l-.814,1.627a1.6,1.6,0,0,0-.171.72v3.446a8.726,8.726,0,0,1-8.995,8.723A9.021,9.021,0,0,1,1705.476,1452.023Zm8.36,12.377c.124,0,.247,0,.371,0a11.971,11.971,0,0,0,3.553-.537v.649a3.875,3.875,0,0,0,.116.94l-3.674,3.673-3.657-3.656a4.387,4.387,0,0,0,.1-.957v-.68A11.292,11.292,0,0,0,1713.836,1464.4Z" transform="translate(-1623.042 -1407.774)" fill="#c8ac78"/>
    <path id="Caminho_39" data-name="Caminho 39" d="M1721.207,1472.419a1.938,1.938,0,0,0-1.938,1.938v12.434a1.939,1.939,0,1,0,3.877,0v-12.434A1.938,1.938,0,0,0,1721.207,1472.419Z" transform="translate(-1621.275 -1407.978)" fill="#c8ac78"/>
    <path id="Caminho_40" data-name="Caminho 40" d="M1666.828,1426.592a.129.129,0,0,1,.1-.131,61.224,61.224,0,0,1,12.591-.615c6.045.4,10.422,1.919,13.012,4.51a1.938,1.938,0,0,0,2.742-2.741c-7.332-7.332-22.669-5.93-28.923-4.987a3.98,3.98,0,0,0-3.4,3.965v4.465a1.939,1.939,0,0,0,3.877,0v-4.465Z" transform="translate(-1624.253 -1407.604)" fill="#c8ac78"/>
  </g>
  <path id="Caminho_41" data-name="Caminho 41" d="M1694.726,1475.734a1.938,1.938,0,0,0-1.938,1.938v8.291a1.938,1.938,0,0,0,3.876,0v-8.291A1.938,1.938,0,0,0,1694.726,1475.734Z" transform="translate(-1620.738 -1407.148)" fill="#c8ac78"/>
</svg>
