<svg xmlns="http://www.w3.org/2000/svg" width="15" height="15" viewBox="0 0 15 15">
  <g id="pinterest-logo" transform="translate(-0.008)">
    <path id="Caminho_99" data-name="Caminho 99" d="M14,3.735a7.469,7.469,0,0,0-2.73-2.729A7.336,7.336,0,0,0,7.509,0,7.337,7.337,0,0,0,3.744,1.006a7.466,7.466,0,0,0-2.73,2.729A7.335,7.335,0,0,0,.008,7.5a7.27,7.27,0,0,0,1.24,4.131A7.475,7.475,0,0,0,4.5,14.375a6.47,6.47,0,0,1,.127-1.728l.967-4.082A2.6,2.6,0,0,1,5.35,7.373a2.237,2.237,0,0,1,.42-1.387A1.248,1.248,0,0,1,6.8,5.43a.916.916,0,0,1,.752.322,1.238,1.238,0,0,1,.264.811A3.032,3.032,0,0,1,7.7,7.3q-.112.435-.293,1.006t-.259.913a1.109,1.109,0,0,0,.225,1.021,1.2,1.2,0,0,0,.957.425A1.964,1.964,0,0,0,10.043,9.5a5.572,5.572,0,0,0,.669-2.822A2.769,2.769,0,0,0,9.886,4.6a3.165,3.165,0,0,0-2.3-.8A3.556,3.556,0,0,0,3.894,7.393a2.221,2.221,0,0,0,.5,1.475.446.446,0,0,1,.107.42q-.02.059-.078.293c-.039.156-.065.257-.078.3q-.078.313-.371.2A2.2,2.2,0,0,1,2.83,8.994a3.9,3.9,0,0,1-.391-1.787A4.26,4.26,0,0,1,2.649,5.9,4.463,4.463,0,0,1,3.3,4.634,5.139,5.139,0,0,1,4.368,3.555,5,5,0,0,1,5.877,2.8,6.27,6.27,0,0,1,7.791,2.52a5.025,5.025,0,0,1,2.49.615,4.4,4.4,0,0,1,1.685,1.592,4.019,4.019,0,0,1,.581,2.09,6.57,6.57,0,0,1-.508,2.637A4.329,4.329,0,0,1,10.6,11.294a3.516,3.516,0,0,1-2.11.669,2.317,2.317,0,0,1-1.113-.278,1.628,1.628,0,0,1-.713-.659q-.44,1.728-.527,2.061a6.007,6.007,0,0,1-.762,1.6,7.5,7.5,0,0,0,5.894-.694A7.465,7.465,0,0,0,14,11.265,7.337,7.337,0,0,0,15.008,7.5,7.334,7.334,0,0,0,14,3.735Z" transform="translate(0 0)" fill="#fff"/>
  </g>
</svg>
