<svg xmlns="http://www.w3.org/2000/svg" width="60" height="72.887" viewBox="0 0 60 72.887">
  <g id="placeholder_2_" data-name="placeholder (2)" transform="translate(-63.974)">
    <g id="Grupo_9053" data-name="Grupo 9053" transform="translate(63.974 0)">
      <g id="Grupo_9052" data-name="Grupo 9052" transform="translate(0 0)">
        <path id="Caminho_130" data-name="Caminho 130" d="M123.785,70.32,113.239,49.994a1.906,1.906,0,0,0-1.012-.886l-5.246-2.128,9.09-13.883c.022-.033.042-.067.062-.1a20.831,20.831,0,0,0,2.724-10.323,21.565,21.565,0,0,0-7.411-16.144,26.574,26.574,0,0,0-35.116.2,21.575,21.575,0,0,0-7.237,15.811A21.112,21.112,0,0,0,71.815,33q.029.051.062.1l9.09,13.882-5.276,2.14a1.9,1.9,0,0,0-.982.874L64.164,70.32a1.68,1.68,0,0,0,.373,2.026,2.116,2.116,0,0,0,2.214.386l13.21-5.359,13.21,5.359a2.152,2.152,0,0,0,1.606,0l13.21-5.359,13.21,5.359a2.136,2.136,0,0,0,.8.156,2.073,2.073,0,0,0,1.412-.541A1.681,1.681,0,0,0,123.785,70.32ZM75.3,31.305a17.511,17.511,0,0,1-2.261-8.748C73.107,12.246,82.365,3.741,93.677,3.6a21.911,21.911,0,0,1,15,5.492,18.143,18.143,0,0,1,6.235,13.583,17.515,17.515,0,0,1-2.261,8.632L95.669,57.236a2.076,2.076,0,0,1-3.39,0ZM108.79,63.761a2.152,2.152,0,0,0-1.606,0L93.974,69.12l-13.21-5.359a2.152,2.152,0,0,0-1.606,0l-9.152,3.713,7.958-15.339L83,50.091l5.885,8.988a6.229,6.229,0,0,0,10.17,0l5.885-8.988,5.04,2.044,7.958,15.338Z" transform="translate(-63.974 0)" fill="#393c65"/>
      </g>
    </g>
    <g id="Grupo_9055" data-name="Grupo 9055" transform="translate(84.967 14.464)">
      <g id="Grupo_9054" data-name="Grupo 9054">
        <path id="Caminho_131" data-name="Caminho 131" d="M207.353,101.607c-4.967,0-9.008,3.682-9.008,8.208s4.041,8.208,9.008,8.208,9.008-3.682,9.008-8.208S212.32,101.607,207.353,101.607Zm0,12.819a4.631,4.631,0,1,1,5.061-4.611A4.857,4.857,0,0,1,207.353,114.426Z" transform="translate(-198.345 -101.607)" fill="#393c65"/>
      </g>
    </g>
  </g>
</svg>
