<svg id="play-button" xmlns="http://www.w3.org/2000/svg" width="139.303" height="139.304" viewBox="0 0 139.303 139.304">
  <g id="Grupo_9376" data-name="Grupo 9376">
    <path id="Caminho_8321" data-name="Caminho 8321" d="M126.9,28.4a69.651,69.651,0,1,0,0,98.5,69.65,69.65,0,0,0,0-98.5Zm-3.176,95.325a65.159,65.159,0,1,1,0-92.148A65.159,65.159,0,0,1,123.726,123.726Z" transform="translate(-8 -8)" fill="#fff"/>
    <path id="Caminho_8322" data-name="Caminho 8322" d="M72.443,308.861a2.242,2.242,0,0,1-.832-.16A62.933,62.933,0,0,1,32,250.247a2.247,2.247,0,0,1,4.494,0,58.439,58.439,0,0,0,36.785,54.282,2.247,2.247,0,0,1-.836,4.332Z" transform="translate(-19.081 -185.65)" fill="#c8ac78"/>
    <path id="Caminho_8323" data-name="Caminho 8323" d="M198.742,462.183a2.267,2.267,0,0,1-.416-.039c-1.561-.292-3.129-.649-4.661-1.059a2.247,2.247,0,1,1,1.162-4.341c1.422.381,2.877.712,4.327.983a2.247,2.247,0,0,1-.411,4.456Z" transform="translate(-134.143 -335.713)" fill="#c8ac78"/>
  </g>
  <path id="Caminho_8324" data-name="Caminho 8324" d="M202.785,213.924a2.247,2.247,0,0,1-2.247-2.247v-49.43a2.247,2.247,0,0,1,3.407-1.924l40.983,24.715a2.247,2.247,0,0,1,0,3.848L203.945,213.6A2.247,2.247,0,0,1,202.785,213.924Zm2.247-47.7V207.7l34.386-20.736Z" transform="translate(-146.463 -117.31)" fill="#fff"/>
</svg>
