<svg id="Grupo_7" data-name="Grupo 7" xmlns="http://www.w3.org/2000/svg" width="110" height="70.381" viewBox="0 0 110 70.381">
  <path id="Caminho_36" data-name="Caminho 36" d="M1418.956,1466.877h88.983a3.34,3.34,0,0,0,3.333-3.338v-57.2a3.34,3.34,0,0,0-3.333-3.338h-88.983a3.343,3.343,0,0,0-3.337,3.338v57.2a3.343,3.343,0,0,0,3.337,3.338Zm-.473-60.54a.475.475,0,0,1,.473-.479h88.983a.479.479,0,0,1,.475.479v57.2a.478.478,0,0,1-.475.475h-88.983a.474.474,0,0,1-.473-.475Zm99.963,63.091v2.667a1.281,1.281,0,0,1-1.281,1.284H1409.726a1.282,1.282,0,0,1-1.28-1.284v-2.667h45.177a1.8,1.8,0,0,0,1.722,1.289h16.2a1.8,1.8,0,0,0,1.722-1.289Zm0,0" transform="translate(-1408.446 -1403)" fill="#c8ac78"/>
</svg>
