<svg xmlns="http://www.w3.org/2000/svg" width="15" height="15" viewBox="0 0 15 15">
  <g id="twitter" transform="translate(0 -48)">
    <g id="Grupo_9010" data-name="Grupo 9010" transform="translate(0 48)">
      <path id="Caminho_98" data-name="Caminho 98" d="M15,49.776a5.5,5.5,0,0,1-1.772.6,3.727,3.727,0,0,0,1.353-2.092,5.505,5.505,0,0,1-1.95.916A2.849,2.849,0,0,0,10.385,48c-1.7,0-3.073,1.7-3.073,3.786a4.766,4.766,0,0,0,.071.863A8.3,8.3,0,0,1,1.044,48.69,4.5,4.5,0,0,0,.623,50.6a4.081,4.081,0,0,0,1.366,3.145A2.616,2.616,0,0,1,.6,53.282v.042a3.7,3.7,0,0,0,2.464,3.719,2.53,2.53,0,0,1-.806.125,2.226,2.226,0,0,1-.582-.065,3.266,3.266,0,0,0,2.873,2.637A5.492,5.492,0,0,1,.736,61.353,4.694,4.694,0,0,1,0,61.3,7.53,7.53,0,0,0,4.717,63c5.659,0,8.752-5.769,8.752-10.77,0-.167,0-.329-.011-.489A7.1,7.1,0,0,0,15,49.776Z" transform="translate(0 -48)" fill="#fff"/>
    </g>
  </g>
</svg>
