<svg xmlns="http://www.w3.org/2000/svg" width="182.6" height="182.6" viewBox="0 0 182.6 182.6">
  <g id="Grupo_9731" data-name="Grupo 9731" transform="translate(-677.201 -163.291)">
    <path id="Caminho_8308" data-name="Caminho 8308" d="M768.5,163.673c7.942,0,15.067,5.4,22.391,7.361,7.578,2.025,16.44.968,23.075,4.807,6.73,3.894,10.223,12.136,15.687,17.6s13.7,8.955,17.6,15.687c3.839,6.633,2.782,15.5,4.807,23.075,1.957,7.324,7.361,14.449,7.361,22.389s-5.4,15.067-7.361,22.393c-2.025,7.578-.968,16.44-4.807,23.075-3.894,6.73-12.136,10.223-17.6,15.685s-8.955,13.7-15.685,17.6c-6.635,3.839-15.5,2.782-23.077,4.807-7.323,1.957-14.449,7.361-22.39,7.361s-15.067-5.4-22.391-7.361c-7.58-2.027-16.442-.968-23.077-4.807-6.73-3.9-10.223-12.136-15.685-17.6s-13.7-8.955-17.6-15.687c-3.839-6.635-2.78-15.5-4.807-23.075-1.957-7.324-7.361-14.449-7.361-22.391s5.4-15.067,7.363-22.391c2.025-7.578.966-16.44,4.806-23.075,3.9-6.73,12.136-10.223,17.6-15.685s8.955-13.7,15.687-17.6c6.635-3.839,15.5-2.782,23.075-4.807C753.435,169.077,760.56,163.673,768.5,163.673Z" transform="translate(0 0)" fill="none" stroke="#c8ac78" stroke-miterlimit="10" stroke-width="0.764"/>
    <path id="Caminho_8309" data-name="Caminho 8309" d="M709.189,194.74c4.972-4.883,8.2-12.236,14.3-15.731,6.025-3.446,14.024-2.54,20.879-4.378,6.629-1.7,13.085-6.473,20.27-6.438s13.632,4.865,20.26,6.631c6.821,1.892,14.786,1.044,20.777,4.546,6.074,3.555,9.27,10.968,14.215,15.907,4.883,4.972,12.236,8.2,15.731,14.3,3.446,6.023,2.54,14.023,4.378,20.879,1.7,6.629,6.473,13.084,6.438,20.269s-4.865,13.632-6.631,20.26c-1.892,6.821-1.044,14.786-4.546,20.775-3.555,6.076-10.966,9.27-15.907,14.217-4.972,4.883-8.2,12.236-14.3,15.731-6.023,3.444-14.023,2.54-20.879,4.378-6.629,1.7-13.085,6.471-20.269,6.438s-13.632-4.866-20.26-6.633c-6.821-1.89-14.786-1.042-20.775-4.546-6.076-3.553-9.27-10.966-14.217-15.905-4.883-4.972-12.236-8.2-15.731-14.3-3.444-6.023-2.54-14.023-4.376-20.879-1.706-6.629-6.472-13.084-6.44-20.269s4.866-13.632,6.633-20.26c1.89-6.821,1.042-14.786,4.546-20.775C696.836,202.882,704.25,199.685,709.189,194.74Z" transform="translate(4.232 4.232)" fill="none" stroke="#c8ac78" stroke-miterlimit="10" stroke-width="0.764"/>
    <path id="Caminho_8310" data-name="Caminho 8310" d="M711.029,196.042c4.482-4.3,7.437-10.771,12.912-13.863,5.411-3.053,12.55-2.3,18.682-3.95,5.934-1.45,11.721-5.582,18.149-5.514s12.2,4.325,18.126,5.9c6.064,1.756,13.133,1.115,18.477,4.285,5.417,3.212,8.318,9.8,12.747,14.215,4.3,4.482,10.771,7.435,13.865,12.912,3.051,5.412,2.3,12.55,3.948,18.682,1.45,5.934,5.582,11.719,5.516,18.149s-4.327,12.2-5.905,18.126c-1.756,6.064-1.115,13.133-4.285,18.477-3.212,5.417-9.8,8.318-14.215,12.746-4.482,4.3-7.435,10.773-12.912,13.865-5.412,3.053-12.548,2.3-18.682,3.948-5.934,1.452-11.721,5.584-18.149,5.516s-12.2-4.325-18.126-5.9c-6.064-1.756-13.133-1.115-18.476-4.285-5.417-3.212-8.318-9.8-12.746-14.215-4.3-4.482-10.773-7.437-13.865-12.912-3.053-5.411-2.3-12.55-3.948-18.682-1.45-5.934-5.584-11.721-5.516-18.149s4.325-12.2,5.9-18.126c1.756-6.064,1.117-13.133,4.285-18.477C700.026,203.372,706.612,200.472,711.029,196.042Z" transform="translate(8.464 8.464)" fill="none" stroke="#c8ac78" stroke-miterlimit="10" stroke-width="0.764"/>
    <path id="Caminho_8311" data-name="Caminho 8311" d="M712.869,197.347c3.992-3.723,6.676-9.305,11.526-12,4.8-2.66,11.075-2.06,16.484-3.52,5.239-1.2,10.357-4.693,16.027-4.593s10.763,3.789,16,5.175c5.3,1.622,11.477,1.191,16.176,4.025,4.761,2.869,7.363,8.627,11.276,12.523,3.723,3.99,9.305,6.676,12,11.526,2.66,4.8,2.06,11.075,3.52,16.484,1.2,5.239,4.693,10.356,4.592,16.027s-3.789,10.763-5.175,16c-1.621,5.3-1.191,11.477-4.023,16.174-2.871,4.763-8.629,7.365-12.525,11.278-3.99,3.723-6.676,9.305-11.526,12-4.8,2.66-11.075,2.06-16.484,3.518-5.239,1.2-10.357,4.693-16.027,4.592s-10.763-3.787-15.995-5.173c-5.307-1.622-11.479-1.191-16.176-4.025-4.763-2.871-7.365-8.629-11.278-12.523-3.723-3.99-9.3-6.676-12-11.526-2.66-4.8-2.06-11.075-3.518-16.484-1.2-5.239-4.693-10.356-4.593-16.029.1-5.655,3.787-10.761,5.173-15.994,1.622-5.305,1.191-11.477,4.025-16.174C703.217,203.862,708.975,201.26,712.869,197.347Z" transform="translate(12.696 12.695)" fill="none" stroke="#c8ac78" stroke-miterlimit="10" stroke-width="0.764"/>
    <path id="Caminho_8312" data-name="Caminho 8312" d="M714.71,198.649c3.5-3.142,5.917-7.839,10.138-10.132,4.19-2.265,9.6-1.82,14.289-3.09,4.544-.941,8.991-3.8,13.907-3.669,4.895.13,9.328,3.249,13.863,4.445,4.548,1.487,9.824,1.264,13.876,3.764,4.1,2.531,6.41,7.46,9.808,10.833,3.142,3.5,7.84,5.917,10.132,10.138,2.267,4.19,1.82,9.6,3.09,14.289.943,4.544,3.8,8.991,3.669,13.907-.13,4.895-3.249,9.328-4.446,13.863-1.487,4.548-1.264,9.824-3.764,13.876-2.531,4.1-7.46,6.411-10.833,9.807-3.5,3.144-5.917,7.839-10.137,10.132-4.19,2.267-9.6,1.82-14.289,3.09-4.544.943-8.991,3.8-13.907,3.671-4.895-.13-9.328-3.249-13.863-4.445-4.548-1.487-9.824-1.266-13.876-3.764-4.1-2.531-6.411-7.46-9.807-10.833-3.144-3.5-7.839-5.917-10.132-10.138-2.267-4.19-1.82-9.6-3.09-14.289-.943-4.544-3.8-8.993-3.671-13.907.13-4.895,3.249-9.328,4.445-13.863,1.487-4.548,1.266-9.824,3.764-13.876C706.408,204.353,711.337,202.047,714.71,198.649Z" transform="translate(16.926 16.926)" fill="none" stroke="#c8ac78" stroke-miterlimit="10" stroke-width="0.764"/>
    <path id="Caminho_8313" data-name="Caminho 8313" d="M716.554,199.954c3.009-2.563,5.156-6.374,8.749-8.265,3.578-1.874,8.128-1.58,12.091-2.66,3.849-.689,7.628-2.916,11.787-2.747,4.132.161,7.892,2.711,11.731,3.715,3.789,1.353,8.169,1.34,11.576,3.5,3.448,2.188,5.458,6.291,8.337,9.141,2.563,3.011,6.374,5.156,8.266,8.751,1.874,3.576,1.58,8.128,2.662,12.091.687,3.849,2.914,7.628,2.745,11.785-.161,4.134-2.711,7.894-3.715,11.731-1.354,3.791-1.34,8.171-3.5,11.578-2.188,3.448-6.291,5.456-9.141,8.337-3.011,2.564-5.156,6.374-8.751,8.265-3.578,1.874-8.128,1.58-12.091,2.66-3.849.689-7.629,2.916-11.787,2.747-4.132-.161-7.892-2.711-11.729-3.717-3.791-1.351-8.17-1.338-11.576-3.5-3.45-2.188-5.458-6.291-8.339-9.142-2.563-3.009-6.374-5.154-8.265-8.749-1.874-3.578-1.58-8.128-2.66-12.091-.689-3.849-2.916-7.628-2.747-11.787.161-4.132,2.711-7.892,3.716-11.729,1.353-3.791,1.34-8.171,3.5-11.576C709.6,204.843,713.7,202.833,716.554,199.954Z" transform="translate(21.156 21.156)" fill="none" stroke="#c8ac78" stroke-miterlimit="10" stroke-width="0.764"/>
    <path id="Caminho_8314" data-name="Caminho 8314" d="M718.4,201.26c2.519-1.983,4.4-4.906,7.363-6.4s6.654-1.34,9.894-2.23c3.154-.436,6.263-2.025,9.665-1.824,3.371.194,6.459,2.17,9.6,2.986,3.032,1.22,6.515,1.413,9.276,3.243,2.794,1.847,4.505,5.123,6.869,7.45,1.983,2.521,4.906,4.4,6.4,7.365s1.34,6.655,2.233,9.892c.434,3.156,2.025,6.265,1.824,9.667-.194,3.371-2.172,6.459-2.987,9.6-1.22,3.032-1.413,6.515-3.243,9.276-1.847,2.794-5.123,4.505-7.45,6.867-2.521,1.984-4.4,4.908-7.365,6.4s-6.652,1.338-9.894,2.23c-3.154.436-6.263,2.025-9.665,1.824-3.371-.194-6.459-2.17-9.6-2.987-3.032-1.218-6.515-1.413-9.276-3.241-2.792-1.849-4.505-5.123-6.868-7.452-1.984-2.519-4.908-4.4-6.4-7.363s-1.34-6.654-2.232-9.894c-.436-3.154-2.025-6.265-1.824-9.667.194-3.369,2.17-6.457,2.985-9.6,1.22-3.034,1.415-6.517,3.243-9.278C712.794,205.335,716.068,203.624,718.4,201.26Z" transform="translate(25.384 25.384)" fill="none" stroke="#c8ac78" stroke-miterlimit="10" stroke-width="0.764"/>
  </g>
</svg>
